<svg xmlns="http://www.w3.org/2000/svg" xmlns:xlink="http://www.w3.org/1999/xlink" xmlns:lucid="lucid" width="880" height="480"><g transform="translate(0 40)" lucid:page-tab-id="0_0"><path d="M20 66a6 6 0 0 1 6-6h828a6 6 0 0 1 6 6v268a6 6 0 0 1-6 6H26a6 6 0 0 1-6-6z" stroke="#6f7681" stroke-width="2" fill="#fff"/><path d="M80 127.2a6 6 0 0 1 6-6h128a6 6 0 0 1 6 6v108a6 6 0 0 1-6 6H86a6 6 0 0 1-6-6z" stroke="#3a414a" stroke-width="2" fill="#1071e5"/><use xlink:href="#a" transform="matrix(1,0,0,1,92.00000000000003,133.20853264271545) translate(13.800564236111114 57.158854166666664)"/><path d="M540 126a6 6 0 0 1 6-6h128a6 6 0 0 1 6 6v108a6 6 0 0 1-6 6H546a6 6 0 0 1-6-6z" stroke="#3a414a" stroke-width="2" fill="#fff"/><use xlink:href="#b" transform="matrix(1,0,0,1,552,132) translate(2.7328559027777786 57.158854166666664)"/><path d="M700 124.8a6 6 0 0 1 6-6h128a6 6 0 0 1 6 6v108a6 6 0 0 1-6 6H706a6 6 0 0 1-6-6z" stroke="#3a414a" stroke-width="2" fill="#fff"/><use xlink:href="#c" transform="matrix(1,0,0,1,712,130.79146735728455) translate(1.0075954861111072 57.158854166666664)"/><path d="M280 127.2a6 6 0 0 1 6-6h228a6 6 0 0 1 6 6v108a6 6 0 0 1-6 6H286a6 6 0 0 1-6-6z" stroke="#3a414a" stroke-width="2" fill="#fff"/><use xlink:href="#d" transform="matrix(1,0,0,1,292.00000000000057,133.20853264271545) translate(-1.0386284722222285 55.89930555555555)"/><path d="M80 266a6 6 0 0 1 6-6h748a6 6 0 0 1 6 6v48a6 6 0 0 1-6 6H86a6 6 0 0 1-6-6z" stroke="#3a414a" stroke-width="2" fill="#fcce14"/><use xlink:href="#e" transform="matrix(1,0,0,1,92.00000000000003,272) translate(311.56011284722223 25.658854166666664)"/><path d="M20 366a6 6 0 0 1 6-6h828a6 6 0 0 1 6 6v48a6 6 0 0 1-6 6H26a6 6 0 0 1-6-6z" stroke="#3a414a" stroke-width="2" fill="#fff"/><use xlink:href="#f" transform="matrix(1,0,0,1,32,372) translate(361.5915798611111 25.658854166666664)"/><use xlink:href="#g" transform="matrix(1,0,0,1,32,372) translate(410.87543402777777 25.658854166666664)"/><path d="M20 2a22 22 0 0 1 22-22h796a22 22 0 0 1 22 22v16a22 22 0 0 1-22 22H42a22 22 0 0 1-22-22z" stroke="#3a414a" stroke-width="2" fill="#fff"/><use xlink:href="#h" transform="matrix(1,0,0,1,32,-8) translate(301.93446180555554 25.658854166666664)"/><use xlink:href="#i" transform="matrix(1,0,0,1,32,-8) translate(411.2009548611111 25.658854166666664)"/><use xlink:href="#j" transform="matrix(1,0,0,1,32,-8) translate(434.39973958333337 25.658854166666664)"/><path d="M26 340a6 6 0 0 1-6-6V63.95a6 6 0 0 1 6-6h48a6 6 0 0 1 6 6V334a6 6 0 0 1-6 6z" stroke="#000" stroke-opacity="0" stroke-width="2" fill="#fff" fill-opacity="0"/><use xlink:href="#k" transform="matrix(6.123233995736766e-17,-1,1,6.123233995736766e-17,25.00000000000003,335) translate(102.42339409722223 33.908854166666664)"/><path d="M550 206a6 6 0 0 1 6-6h268a6 6 0 0 1 6 6v19.52a6 6 0 0 1-6 6H556a6 6 0 0 1-6-6z" fill="#fff"/><path d="M552.7 201l.58-.35.87-.36.9-.23h3m3.98 0H568m4 0h5.97m4 0h5.96m4 0h5.96m3.98 0h5.97m4 0h5.96m4 0l5.97-.02m4 0h5.97m3.98 0h5.98m3.98 0h5.98m3.98 0h5.98m3.98 0h5.98m3.98 0h5.98m3.98 0l5.98-.02m3.98 0h5.98m3.98 0h5.98m3.98 0h5.98m4 0h5.96m4 0h5.96m4 0h5.96m4 0h5.96m4-.02h5.96m4 0h5.97m3.98 0h5.98m4 0h5.97m3.98 0h5.98m3.98 0h3l.94.07.9.22.62.25m2.54 2.16l.35.58.36.87.23.9v3.08m.02 4.1l.02 6.13m.02 4.1v3.06l-.07.94-.22.9-.25.62m-2.16 2.54l-.58.34-.87.36-.9.22h-3m-3.98 0H812m-4 0h-5.97m-4 0h-5.96m-4 0h-5.96m-3.98.02h-5.97m-4 0h-5.96m-4 0h-5.97m-4 0h-5.97m-3.98 0h-5.98m-3.98 0h-5.98m-3.98 0h-5.98m-3.98 0l-5.98.02m-3.98 0h-5.98m-3.98 0h-5.98m-3.98 0h-5.98m-3.98 0h-5.98m-3.98 0h-5.98m-4 0h-5.96m-4 0l-5.96.02m-4 0h-5.96m-4 0h-5.96m-4 0h-5.96m-4 0h-5.97m-3.98 0h-5.98m-4 0h-5.97m-3.98 0h-5.98m-3.98.02h-3l-.94-.08-.9-.22-.62-.25M551 228.8l-.35-.56-.36-.87-.23-.9v-3.08m-.02-4.1l-.02-6.14m-.02-4.1V206l.07-.94.22-.9.25-.62" stroke="#3a414a" stroke-width="2" fill="none"/><path d="M623.68 204.8a6 6 0 0 1 6-6h120.64a6 6 0 0 1 6 6v20.72a6 6 0 0 1-6 6H629.68a6 6 0 0 1-6-6z" stroke="#000" stroke-opacity="0" fill-opacity="0"/><use xlink:href="#l" transform="matrix(1,0,0,1,628.6842105263158,203.79146735728455) translate(2.7923177083333286 21.158854166666664)"/><path d="M401 103.38c0 .55-.45 1-1 1s-1-.45-1-1 .45-1 1-1 1 .45 1 1zm0 3.97c0 .55-.45 1-1 1s-1-.45-1-1c0-.56.45-1 1-1s1 .44 1 1zm0 3.96c0 .57-.45 1-1 1s-1-.43-1-1c0-.54.45-1 1-1s1 .46 1 1zm0 3.98c0 .55-.45 1-1 1s-1-.45-1-1 .45-1 1-1 1 .45 1 1z" fill="#3a414a"/><path d="M401 103.4h-2v-1.02h2zM401 120.25h-2v-1.03h2z" stroke="#3a414a" stroke-width=".05" fill="#3a414a"/><path d="M370 69.7a6 6 0 0 1 6-6h48a6 6 0 0 1 6 6v26.72a6 6 0 0 1-6 6h-48a6 6 0 0 1-6-6z" stroke="#000" stroke-opacity="0" fill="#fff" fill-opacity="0"/><use xlink:href="#m" transform="matrix(1,0,0,1,375.00000000000034,68.70864892660366) translate(6.998697916666668 22.971354166666664)"/><path d="M611 103.38c0 .55-.45 1-1 1s-1-.45-1-1 .45-1 1-1 1 .45 1 1zm0 3.66c0 .56-.45 1-1 1s-1-.44-1-1c0-.55.45-1 1-1s1 .45 1 1zm0 3.67c0 .56-.45 1-1 1s-1-.44-1-1c0-.54.45-1 1-1s1 .46 1 1zm0 3.67c0 .55-.45 1-1 1s-1-.45-1-1 .45-1 1-1 1 .45 1 1z" fill="#3a414a"/><path d="M611 103.4h-2v-1.02h2zM611 119.04h-2V118h2z" stroke="#3a414a" stroke-width=".05" fill="#3a414a"/><path d="M520 69.7a6 6 0 0 1 6-6h168a6 6 0 0 1 6 6v26.72a6 6 0 0 1-6 6H526a6 6 0 0 1-6-6z" stroke="#000" stroke-opacity="0" fill="#fff" fill-opacity="0"/><use xlink:href="#n" transform="matrix(1,0,0,1,525,68.70864892660366) translate(0.2669270833333428 22.971354166666664)"/><use xlink:href="#o" transform="matrix(1,0,0,1,525,68.70864892660366) translate(89.4162326388889 22.971354166666664)"/><use xlink:href="#p" transform="matrix(1,0,0,1,525,68.70864892660366) translate(137.50651041666666 22.971354166666664)"/><path d="M771 103.38c0 .55-.45 1-1 1s-1-.45-1-1 .45-1 1-1 1 .45 1 1zm0 4.48c0 .56-.45 1-1 1s-1-.44-1-1c0-.55.45-1 1-1s1 .45 1 1zm0 4.5c0 .54-.45 1-1 1s-1-.46-1-1c0-.57.45-1 1-1s1 .43 1 1z" fill="#3a414a"/><path d="M771 103.4h-2v-1.02h2zM771 117.83h-2v-1.03h2z" stroke="#3a414a" stroke-width=".05" fill="#3a414a"/><path d="M740 69.7a6 6 0 0 1 6-6h48a6 6 0 0 1 6 6v26.72a6 6 0 0 1-6 6h-48a6 6 0 0 1-6-6z" stroke="#000" stroke-opacity="0" fill="#fff" fill-opacity="0"/><use xlink:href="#q" transform="matrix(1,0,0,1,745,68.70864892660366) translate(2.1755642361111107 22.971354166666664)"/><path d="M200 69.7a6 6 0 0 1 6-6h88a6 6 0 0 1 6 6v26.72a6 6 0 0 1-6 6h-88a6 6 0 0 1-6-6z" stroke="#000" stroke-opacity="0" fill="#fff" fill-opacity="0"/><use xlink:href="#r" transform="matrix(1,0,0,1,205,68.70864892660366) translate(14.15234375 22.971354166666664)"/><path d="M251 103.38c0 .55-.45 1-1 1s-1-.45-1-1 .45-1 1-1 1 .45 1 1zm0 4.05c0 .55-.45 1-1 1s-1-.45-1-1 .45-1 1-1 1 .45 1 1zm0 4.05c0 .55-.45 1-1 1s-1-.45-1-1 .45-1 1-1 1 .45 1 1zm0 4.05c0 .55-.45 1-1 1s-1-.45-1-1 .45-1 1-1 1 .45 1 1zm0 4.05c0 .55-.45 1-1 1s-1-.45-1-1 .45-1 1-1 1 .45 1 1zm0 4.05c0 .55-.45 1-1 1s-1-.45-1-1 .45-1 1-1 1 .45 1 1zm0 4.05c0 .55-.45 1-1 1s-1-.45-1-1 .45-1 1-1 1 .45 1 1zm0 4.05c0 .55-.45 1-1 1s-1-.45-1-1 .45-1 1-1 1 .45 1 1zm0 4.05c0 .55-.45 1-1 1s-1-.45-1-1 .45-1 1-1 1 .45 1 1zm0 4.05c0 .55-.45 1-1 1s-1-.45-1-1 .45-1 1-1 1 .45 1 1zm0 4.05c0 .55-.45 1-1 1s-1-.45-1-1 .45-1 1-1 1 .45 1 1zm0 4.05c0 .55-.45 1-1 1s-1-.45-1-1 .45-1 1-1 1 .45 1 1zm0 4.05c0 .56-.45 1-1 1s-1-.44-1-1c0-.55.45-1 1-1s1 .45 1 1zm0 4.05c0 .56-.45 1-1 1s-1-.44-1-1c0-.55.45-1 1-1s1 .45 1 1zm0 4.05c0 .56-.45 1-1 1s-1-.44-1-1c0-.55.45-1 1-1s1 .45 1 1zm0 4.05c0 .56-.45 1-1 1s-1-.44-1-1c0-.55.45-1 1-1s1 .45 1 1zm0 4.05c0 .56-.45 1-1 1s-1-.44-1-1c0-.55.45-1 1-1s1 .45 1 1zm0 4.05c0 .56-.45 1-1 1s-1-.44-1-1c0-.55.45-1 1-1s1 .45 1 1zm0 4.05c0 .56-.45 1-1 1s-1-.44-1-1c0-.55.45-1 1-1s1 .45 1 1zm0 4.05c0 .56-.45 1-1 1s-1-.44-1-1c0-.55.45-1 1-1s1 .45 1 1zm0 4.05c0 .56-.45 1-1 1s-1-.44-1-1c0-.55.45-1 1-1s1 .45 1 1zm0 4.05c0 .56-.45 1-1 1s-1-.44-1-1c0-.55.45-1 1-1s1 .45 1 1zm0 4.05c0 .56-.45 1-1 1s-1-.44-1-1c0-.55.45-1 1-1s1 .45 1 1zm0 4.05c0 .56-.45 1-1 1s-1-.44-1-1c0-.55.45-1 1-1s1 .45 1 1zm0 4.06c0 .54-.45 1-1 1s-1-.46-1-1c0-.57.45-1 1-1s1 .43 1 1zm0 4.04c0 .55-.45 1-1 1s-1-.45-1-1c0-.56.45-1 1-1s1 .44 1 1zm0 4.05c0 .54-.45 1-1 1s-1-.46-1-1c0-.57.45-1 1-1s1 .43 1 1zm0 4.04c0 .55-.45 1-1 1s-1-.45-1-1c0-.56.45-1 1-1s1 .44 1 1zm0 4.05c0 .54-.45 1-1 1s-1-.46-1-1c0-.57.45-1 1-1s1 .43 1 1zm0 4.04c0 .55-.45 1-1 1s-1-.45-1-1c0-.56.45-1 1-1s1 .44 1 1zm0 4.05c0 .54-.45 1-1 1s-1-.46-1-1c0-.57.45-1 1-1s1 .43 1 1zm0 4.04c0 .55-.45 1-1 1s-1-.45-1-1c0-.56.45-1 1-1s1 .44 1 1zm0 4.05c0 .54-.45 1-1 1s-1-.46-1-1c0-.57.45-1 1-1s1 .43 1 1zm0 4.04c0 .55-.45 1-1 1s-1-.45-1-1c0-.56.45-1 1-1s1 .44 1 1zm0 4.2c0 .55-.45 1-1 1s-1-.45-1-1 .45-1 1-1 1 .45 1 1zm0 4.2c0 .56-.45 1-1 1s-1-.44-1-1c0-.55.45-1 1-1s1 .45 1 1zm0 4.2c0 .56-.45 1-1 1s-1-.44-1-1c0-.54.45-1 1-1s1 .46 1 1zm0 4.2c0 .57-.45 1-1 1s-1-.43-1-1c0-.54.45-1 1-1s1 .46 1 1zm0 4.22c0 .55-.45 1-1 1s-1-.45-1-1c0-.56.45-1 1-1s1 .44 1 1z" fill="#3a414a"/><path d="M251 103.4h-2v-1.02h2zM251 259.06h-2v-1.03h2z" stroke="#3a414a" stroke-width=".05" fill="#3a414a"/><path d="M120 69.7a6 6 0 0 1 6-6h48a6 6 0 0 1 6 6v26.72a6 6 0 0 1-6 6h-48a6 6 0 0 1-6-6z" stroke="#000" stroke-opacity="0" fill="#fff" fill-opacity="0"/><use xlink:href="#s" transform="matrix(1,0,0,1,125.00000000000009,68.70864892660364) translate(11.273871527777777 22.971354166666664)"/><path d="M151 103.38c0 .55-.45 1-1 1s-1-.45-1-1 .45-1 1-1 1 .45 1 1zm0 3.97c0 .55-.45 1-1 1s-1-.45-1-1c0-.56.45-1 1-1s1 .44 1 1zm0 3.96c0 .57-.45 1-1 1s-1-.43-1-1c0-.54.45-1 1-1s1 .46 1 1zm0 3.98c0 .55-.45 1-1 1s-1-.45-1-1 .45-1 1-1 1 .45 1 1z" fill="#3a414a"/><path d="M151 103.4h-2v-1.02h2zM151 120.24h-2v-1.02h2z" stroke="#3a414a" stroke-width=".05" fill="#3a414a"/><path d="M401 243.17c0 .55-.45 1-1 1s-1-.45-1-1 .45-1 1-1 1 .45 1 1zm0 3.72c0 .54-.45 1-1 1s-1-.46-1-1c0-.56.45-1 1-1s1 .44 1 1zm0 3.7c0 .56-.45 1-1 1s-1-.44-1-1c0-.55.45-1 1-1s1 .45 1 1zm0 3.73c0 .55-.45 1-1 1s-1-.45-1-1c0-.56.45-1 1-1s1 .44 1 1z" fill="#3a414a"/><path d="M401 243.2h-2v-1.03h2zM401 259.04h-2v-1.02h2z" stroke="#3a414a" stroke-width=".05" fill="#3a414a"/><path d="M151 243.17c0 .55-.45 1-1 1s-1-.45-1-1 .45-1 1-1 1 .45 1 1zm0 3.73c0 .55-.45 1-1 1s-1-.45-1-1c0-.56.45-1 1-1s1 .44 1 1zm0 3.72c0 .55-.45 1-1 1s-1-.45-1-1 .45-1 1-1 1 .45 1 1zm0 3.72c0 .56-.45 1-1 1s-1-.44-1-1c0-.55.45-1 1-1s1 .45 1 1z" fill="#3a414a"/><path d="M151 243.2h-2v-1.03h2zM151 259.07h-2v-1.03h2z" stroke="#3a414a" stroke-width=".05" fill="#3a414a"/><path d="M611 241.96c0 .56-.45 1-1 1s-1-.44-1-1c0-.55.45-1 1-1s1 .45 1 1zm0 4.02c0 .55-.45 1-1 1s-1-.45-1-1 .45-1 1-1 1 .45 1 1zm0 4c0 .56-.45 1-1 1s-1-.44-1-1c0-.54.45-1 1-1s1 .46 1 1zm0 4.03c0 .56-.45 1-1 1s-1-.44-1-1c0-.55.45-1 1-1s1 .45 1 1z" fill="#3a414a"/><path d="M611 242h-2v-1.04h2zM611 259.02h-2V258h2z" stroke="#3a414a" stroke-width=".05" fill="#3a414a"/><path d="M771 240.75c0 .56-.45 1-1 1s-1-.44-1-1c0-.55.45-1 1-1s1 .45 1 1zm0 4.32c0 .55-.45 1-1 1s-1-.45-1-1 .45-1 1-1 1 .45 1 1zm0 4.3c0 .56-.45 1-1 1s-1-.44-1-1c0-.54.45-1 1-1s1 .46 1 1zm0 4.32c0 .55-.45 1-1 1s-1-.45-1-1c0-.56.45-1 1-1s1 .44 1 1z" fill="#3a414a"/><path d="M771 240.78h-2v-1.02h2zM771 259h-2V258h2z" stroke="#3a414a" stroke-width=".05" fill="#3a414a"/><defs><path fill="#fff" d="M140 0v-1443h208L848-227h6l500-1216h208V0h-168v-1115h-6L927 0H775L314-1115h-6V0H140" id="t"/><path fill="#fff" d="M140 0v-1443h180V0H140" id="u"/><path fill="#fff" d="M140 0v-1443h485c428 0 682 267 681 721 0 455-252 722-681 722H140zm180-162h293c328 0 510-201 509-560 0-360-182-559-509-559H320v1119" id="v"/><path fill="#fff" d="M140 0v-1443h180v708h6l612-708h226L600-804 1217 0H987L474-674 320-505V0H140" id="w"/><path fill="#fff" d="M211-1216c-60 0-109-49-109-109 0-61 49-109 109-109 61 0 109 48 109 109 0 60-48 109-109 109zM124 0v-1040h174V0H124" id="x"/><path fill="#fff" d="M451 20c-191 0-285-86-285-285v-631H14v-144h152v-281h180v281h198v144H346v630c-5 134 82 152 198 138V13c-22 3-59 7-93 7" id="y"/><path fill="#fff" d="M750 24C339 24 83-264 84-723c0-457 257-744 666-744s665 288 664 746c0 458-255 745-664 745zm0-166c298 0 481-228 480-581 0-354-186-578-480-578-296 0-483 224-482 580 0 355 186 579 482 579" id="z"/><g id="a"><use transform="matrix(0.010850694444444444,0,0,0.010850694444444444,0,0)" xlink:href="#t"/><use transform="matrix(0.010850694444444444,0,0,0.010850694444444444,18.467881944444443,0)" xlink:href="#u"/><use transform="matrix(0.010850694444444444,0,0,0.010850694444444444,23.45920138888889,0)" xlink:href="#v"/><use transform="matrix(0.010850694444444444,0,0,0.010850694444444444,38.541666666666664,0)" xlink:href="#u"/><use transform="matrix(0.010850694444444444,0,0,0.010850694444444444,43.53298611111111,0)" xlink:href="#w"/><use transform="matrix(0.010850694444444444,0,0,0.010850694444444444,56.87934027777778,0)" xlink:href="#x"/><use transform="matrix(0.010850694444444444,0,0,0.010850694444444444,61.45833333333333,0)" xlink:href="#y"/><use transform="matrix(0.010850694444444444,0,0,0.010850694444444444,68.15321180555556,0)" xlink:href="#u"/><use transform="matrix(0.010850694444444444,0,0,0.010850694444444444,73.14453125,0)" xlink:href="#z"/></g><path fill="#282c33" d="M140 0v-1443h208L848-227h6l500-1216h208V0h-168v-1115h-6L927 0H775L314-1115h-6V0H140" id="A"/><path fill="#282c33" d="M140 0v-1443h180V0H140" id="B"/><path fill="#282c33" d="M140 0v-1443h485c428 0 682 267 681 721 0 455-252 722-681 722H140zm180-162h293c328 0 510-201 509-560 0-360-182-559-509-559H320v1119" id="C"/><path fill="#282c33" d="M140 0v-1443h180v708h6l612-708h226L600-804 1217 0H987L474-674 320-505V0H140" id="D"/><path fill="#282c33" d="M211-1216c-60 0-109-49-109-109 0-61 49-109 109-109 61 0 109 48 109 109 0 60-48 109-109 109zM124 0v-1040h174V0H124" id="E"/><path fill="#282c33" d="M451 20c-191 0-285-86-285-285v-631H14v-144h152v-281h180v281h198v144H346v630c-5 134 82 152 198 138V13c-22 3-59 7-93 7" id="F"/><path fill="#282c33" d="M939-1053c-18-158-142-247-330-248-193 1-319 93-319 233 0 118 87 192 275 233l160 35c296 65 420 185 420 406 0 256-203 418-533 418C295 23 83-131 70-390h180c16 157 157 246 372 248 208 0 339-94 339-244 0-127-83-198-281-242l-160-35c-282-62-414-189-414-401 1-237 211-403 508-403 287 2 495 166 505 414H939" id="G"/><path fill="#282c33" d="M140 0v-1443h876v162H320v496h639v160H320V0H140" id="H"/><g id="b"><use transform="matrix(0.010850694444444444,0,0,0.010850694444444444,0,0)" xlink:href="#A"/><use transform="matrix(0.010850694444444444,0,0,0.010850694444444444,18.467881944444443,0)" xlink:href="#B"/><use transform="matrix(0.010850694444444444,0,0,0.010850694444444444,23.45920138888889,0)" xlink:href="#C"/><use transform="matrix(0.010850694444444444,0,0,0.010850694444444444,38.541666666666664,0)" xlink:href="#B"/><use transform="matrix(0.010850694444444444,0,0,0.010850694444444444,43.53298611111111,0)" xlink:href="#D"/><use transform="matrix(0.010850694444444444,0,0,0.010850694444444444,56.87934027777778,0)" xlink:href="#E"/><use transform="matrix(0.010850694444444444,0,0,0.010850694444444444,61.45833333333333,0)" xlink:href="#F"/><use transform="matrix(0.010850694444444444,0,0,0.010850694444444444,68.15321180555556,0)" xlink:href="#G"/><use transform="matrix(0.010850694444444444,0,0,0.010850694444444444,81.33680555555556,0)" xlink:href="#A"/><use transform="matrix(0.010850694444444444,0,0,0.010850694444444444,99.8046875,0)" xlink:href="#H"/></g><path fill="#282c33" d="M566 65c-83 230-200 311-446 277V200c137 18 224-4 269-140l21-59L24-1040h186l287 866h4l288-866h183" id="I"/><path fill="#282c33" d="M113 0v-1040h174v148h4c56-97 162-168 320-168 228 0 360 148 360 385V0H797v-644c0-169-79-262-239-262-164 0-271 117-271 294V0H113" id="J"/><path fill="#282c33" d="M979-338C953-135 782 19 544 20 249 20 62-190 62-522c0-328 191-538 480-538 262 1 415 173 435 358H807c-25-110-108-203-265-204-181 0-302 150-302 387 0 242 124 385 304 385 145 0 237-83 264-204h171" id="K"/><g id="c"><use transform="matrix(0.010850694444444444,0,0,0.010850694444444444,0,0)" xlink:href="#A"/><use transform="matrix(0.010850694444444444,0,0,0.010850694444444444,18.467881944444443,0)" xlink:href="#B"/><use transform="matrix(0.010850694444444444,0,0,0.010850694444444444,23.45920138888889,0)" xlink:href="#C"/><use transform="matrix(0.010850694444444444,0,0,0.010850694444444444,38.541666666666664,0)" xlink:href="#B"/><use transform="matrix(0.010850694444444444,0,0,0.010850694444444444,43.53298611111111,0)" xlink:href="#D"/><use transform="matrix(0.010850694444444444,0,0,0.010850694444444444,56.87934027777778,0)" xlink:href="#E"/><use transform="matrix(0.010850694444444444,0,0,0.010850694444444444,61.45833333333333,0)" xlink:href="#F"/><use transform="matrix(0.010850694444444444,0,0,0.010850694444444444,68.15321180555556,0)" xlink:href="#G"/><use transform="matrix(0.010850694444444444,0,0,0.010850694444444444,81.33680555555556,0)" xlink:href="#I"/><use transform="matrix(0.010850694444444444,0,0,0.010850694444444444,92.14409722222221,0)" xlink:href="#J"/><use transform="matrix(0.010850694444444444,0,0,0.010850694444444444,103.8519965277778,0)" xlink:href="#K"/></g><path fill="#282c33" d="M1333-441c-52 282-284 465-590 465C342 24 84-268 84-723c0-454 257-744 659-744 304 0 538 185 590 465h-182c-51-187-196-300-408-299-288 0-474 227-474 579 0 351 187 580 474 580 205 1 347-105 408-299h182" id="L"/><path fill="#282c33" d="M544 20C254 20 61-190 62-522c0-331 194-538 481-538 288 0 483 207 482 540 0 332-194 540-481 540zm1-154c184 0 303-143 302-388 0-244-120-384-304-384-182 0-304 142-303 386 0 245 121 386 305 386" id="M"/><path fill="#282c33" d="M113 0v-1040h174v176h4c43-141 154-221 312-189v169c-177-43-316 47-316 242V0H113" id="N"/><path fill="#282c33" d="M122 0v-1443h174V0H122" id="O"/><path fill="#282c33" d="M468 20c-228 0-360-148-360-385v-675h174v644c0 169 79 262 239 262 164 0 271-117 271-294v-612h174V0H792v-148h-4C732-51 626 20 468 20" id="P"/><path fill="#282c33" d="M169 0v-896H24v-144h145v-128c0-200 93-295 285-295 39 0 80 3 106 7v141c-127-19-226 14-219 148v127h214v144H343V0H169" id="Q"/><path fill="#282c33" d="M110-740c12-181 161-318 410-320 246 0 400 133 400 341V0H746v-169h-4C681-55 556 20 417 20 209 20 70-105 71-296c0-177 138-288 377-302l298-17v-87c0-127-83-204-228-204-138 1-222 66-240 166H110zm139 444c-1 102 81 165 207 165 164 0 290-113 290-264v-85l-278 17c-139 8-219 70-219 167" id="R"/><path fill="#282c33" d="M974-298C943-118 772 19 541 20 242 20 62-189 62-517c0-322 184-543 468-543 304 1 476 237 457 587H238c4 214 122 339 307 339 136-1 230-68 258-164h171zM529-906c-151 0-269 103-288 297h569c-17-202-129-297-281-297" id="S"/><path fill="#282c33" d="M698-740c-12-106-89-175-221-175-126 0-204 61-204 154 0 71 47 120 162 148l165 40c210 51 286 134 286 283 0 182-172 310-404 310C233 19 85-107 67-300h174c19 111 96 175 242 175 141 0 225-59 225-154 0-75-39-117-157-146l-165-40C190-512 95-603 95-754c0-179 157-306 382-306 233 2 378 135 387 320H698" id="T"/><g id="d"><use transform="matrix(0.010850694444444444,0,0,0.010850694444444444,0,0)" xlink:href="#A"/><use transform="matrix(0.010850694444444444,0,0,0.010850694444444444,18.467881944444443,0)" xlink:href="#B"/><use transform="matrix(0.010850694444444444,0,0,0.010850694444444444,23.45920138888889,0)" xlink:href="#C"/><use transform="matrix(0.010850694444444444,0,0,0.010850694444444444,38.541666666666664,0)" xlink:href="#B"/><use transform="matrix(0.010850694444444444,0,0,0.010850694444444444,43.53298611111111,0)" xlink:href="#D"/><use transform="matrix(0.010850694444444444,0,0,0.010850694444444444,56.87934027777778,0)" xlink:href="#E"/><use transform="matrix(0.010850694444444444,0,0,0.010850694444444444,61.45833333333333,0)" xlink:href="#F"/><use transform="matrix(0.010850694444444444,0,0,0.010850694444444444,68.15321180555556,0)" xlink:href="#L"/><use transform="matrix(0.010850694444444444,0,0,0.010850694444444444,83.3984375,0)" xlink:href="#M"/><use transform="matrix(0.010850694444444444,0,0,0.010850694444444444,95.19314236111111,0)" xlink:href="#J"/><use transform="matrix(0.010850694444444444,0,0,0.010850694444444444,106.90104166666666,0)" xlink:href="#F"/><use transform="matrix(0.010850694444444444,0,0,0.010850694444444444,113.5959201388889,0)" xlink:href="#N"/><use transform="matrix(0.010850694444444444,0,0,0.010850694444444444,119.9001736111111,0)" xlink:href="#M"/><use transform="matrix(0.010850694444444444,0,0,0.010850694444444444,131.69487847222223,0)" xlink:href="#O"/><use transform="matrix(0.010850694444444444,0,0,0.010850694444444444,136.23046875,0)" xlink:href="#G"/><use transform="matrix(0.010850694444444444,0,0,0.010850694444444444,149.4140625,0)" xlink:href="#P"/><use transform="matrix(0.010850694444444444,0,0,0.010850694444444444,161.12196180555554,0)" xlink:href="#N"/><use transform="matrix(0.010850694444444444,0,0,0.010850694444444444,167.96875,0)" xlink:href="#Q"/><use transform="matrix(0.010850694444444444,0,0,0.010850694444444444,174.0668402777778,0)" xlink:href="#R"/><use transform="matrix(0.010850694444444444,0,0,0.010850694444444444,185.22135416666669,0)" xlink:href="#K"/><use transform="matrix(0.010850694444444444,0,0,0.010850694444444444,196.35416666666669,0)" xlink:href="#S"/><use transform="matrix(0.010850694444444444,0,0,0.010850694444444444,207.7365451388889,0)" xlink:href="#T"/></g><g id="e"><use transform="matrix(0.010850694444444444,0,0,0.010850694444444444,0,0)" xlink:href="#A"/><use transform="matrix(0.010850694444444444,0,0,0.010850694444444444,18.467881944444443,0)" xlink:href="#B"/><use transform="matrix(0.010850694444444444,0,0,0.010850694444444444,23.45920138888889,0)" xlink:href="#C"/><use transform="matrix(0.010850694444444444,0,0,0.010850694444444444,38.541666666666664,0)" xlink:href="#B"/><use transform="matrix(0.010850694444444444,0,0,0.010850694444444444,43.53298611111111,0)" xlink:href="#D"/><use transform="matrix(0.010850694444444444,0,0,0.010850694444444444,56.87934027777778,0)" xlink:href="#E"/><use transform="matrix(0.010850694444444444,0,0,0.010850694444444444,61.45833333333333,0)" xlink:href="#F"/><use transform="matrix(0.010850694444444444,0,0,0.010850694444444444,68.15321180555556,0)" xlink:href="#L"/><use transform="matrix(0.010850694444444444,0,0,0.010850694444444444,83.3984375,0)" xlink:href="#M"/><use transform="matrix(0.010850694444444444,0,0,0.010850694444444444,95.19314236111111,0)" xlink:href="#N"/><use transform="matrix(0.010850694444444444,0,0,0.010850694444444444,101.49739583333333,0)" xlink:href="#S"/></g><g id="f"><use transform="matrix(0.010850694444444444,0,0,0.010850694444444444,0,0)" xlink:href="#L"/><use transform="matrix(0.010850694444444444,0,0,0.010850694444444444,15.245225694444445,0)" xlink:href="#M"/><use transform="matrix(0.010850694444444444,0,0,0.010850694444444444,27.03993055555556,0)" xlink:href="#N"/><use transform="matrix(0.010850694444444444,0,0,0.010850694444444444,33.34418402777778,0)" xlink:href="#S"/></g><g id="g"><use transform="matrix(0.010850694444444444,0,0,0.010850694444444444,0,0)" xlink:href="#A"/><use transform="matrix(0.010850694444444444,0,0,0.010850694444444444,18.467881944444443,0)" xlink:href="#B"/><use transform="matrix(0.010850694444444444,0,0,0.010850694444444444,23.45920138888889,0)" xlink:href="#C"/><use transform="matrix(0.010850694444444444,0,0,0.010850694444444444,38.541666666666664,0)" xlink:href="#B"/></g><path fill="#282c33" d="M25 0l537-1443h178L1276 0h-189L941-413H360L214 0H25zm624-1227L415-566h472l-234-661h-4" id="U"/><path fill="#282c33" d="M113 350v-1390h174v176h4c65-121 181-196 330-196 266 0 442 212 442 541 0 328-178 539-439 539-147 0-268-74-333-194h-4v524H113zm474-484c184 0 298-148 298-386 0-239-114-386-298-386-176 0-301 153-301 387 0 232 126 385 301 385" id="V"/><g id="h"><use transform="matrix(0.010850694444444444,0,0,0.010850694444444444,0,0)" xlink:href="#U"/><use transform="matrix(0.010850694444444444,0,0,0.010850694444444444,14.116753472222221,0)" xlink:href="#V"/><use transform="matrix(0.010850694444444444,0,0,0.010850694444444444,26.32378472222222,0)" xlink:href="#V"/><use transform="matrix(0.010850694444444444,0,0,0.010850694444444444,38.53081597222222,0)" xlink:href="#O"/><use transform="matrix(0.010850694444444444,0,0,0.010850694444444444,43.06640625,0)" xlink:href="#E"/><use transform="matrix(0.010850694444444444,0,0,0.010850694444444444,47.64539930555556,0)" xlink:href="#K"/><use transform="matrix(0.010850694444444444,0,0,0.010850694444444444,58.77821180555555,0)" xlink:href="#R"/><use transform="matrix(0.010850694444444444,0,0,0.010850694444444444,69.93272569444444,0)" xlink:href="#F"/><use transform="matrix(0.010850694444444444,0,0,0.010850694444444444,76.62760416666667,0)" xlink:href="#E"/><use transform="matrix(0.010850694444444444,0,0,0.010850694444444444,81.20659722222223,0)" xlink:href="#M"/><use transform="matrix(0.010850694444444444,0,0,0.010850694444444444,93.00130208333334,0)" xlink:href="#J"/></g><g id="i"><use transform="matrix(0.010850694444444444,0,0,0.010850694444444444,0,0)" xlink:href="#M"/><use transform="matrix(0.010850694444444444,0,0,0.010850694444444444,11.79470486111111,0)" xlink:href="#N"/></g><path fill="#282c33" d="M140 0v-1443h514c272 0 464 188 463 463 0 274-192 465-463 465H320V0H140zm468-1283H320v608h288c207 0 326-113 325-305 0-190-119-303-325-303" id="W"/><path fill="#282c33" d="M127 0v-1443h174v862h4l456-459h211L521-591 986 0H784L398-485l-97 93V0H127" id="X"/><path fill="#282c33" d="M273 86c32 83 131 129 278 130 183 0 287-101 287-262v-133h-4C772-64 652 10 503 10 241 10 62-201 62-527c0-323 181-533 445-533 147 0 263 80 327 196h4v-176h174V-29c0 241-177 399-459 399-261-1-423-122-455-284h175zm268-230c177 0 297-151 297-383 0-229-121-379-297-379-185 0-301 148-301 380 0 236 116 382 301 382" id="Y"/><g id="j"><use transform="matrix(0.010850694444444444,0,0,0.010850694444444444,0,0)" xlink:href="#W"/><use transform="matrix(0.010850694444444444,0,0,0.010850694444444444,11.859809027777777,0)" xlink:href="#R"/><use transform="matrix(0.010850694444444444,0,0,0.010850694444444444,23.014322916666664,0)" xlink:href="#K"/><use transform="matrix(0.010850694444444444,0,0,0.010850694444444444,34.147135416666664,0)" xlink:href="#X"/><use transform="matrix(0.010850694444444444,0,0,0.010850694444444444,44.93272569444444,0)" xlink:href="#R"/><use transform="matrix(0.010850694444444444,0,0,0.010850694444444444,56.08723958333333,0)" xlink:href="#Y"/><use transform="matrix(0.010850694444444444,0,0,0.010850694444444444,68.28342013888889,0)" xlink:href="#S"/></g><path fill="#3a414a" d="M140 0v-1443h208L848-227h6l500-1216h208V0h-168v-1115h-6L927 0H775L314-1115h-6V0H140" id="Z"/><path fill="#3a414a" d="M140 0v-1443h180V0H140" id="aa"/><path fill="#3a414a" d="M140 0v-1443h485c428 0 682 267 681 721 0 455-252 722-681 722H140zm180-162h293c328 0 510-201 509-560 0-360-182-559-509-559H320v1119" id="ab"/><path fill="#3a414a" d="M140 0v-1443h180v708h6l612-708h226L600-804 1217 0H987L474-674 320-505V0H140" id="ac"/><path fill="#3a414a" d="M211-1216c-60 0-109-49-109-109 0-61 49-109 109-109 61 0 109 48 109 109 0 60-48 109-109 109zM124 0v-1040h174V0H124" id="ad"/><path fill="#3a414a" d="M451 20c-191 0-285-86-285-285v-631H14v-144h152v-281h180v281h198v144H346v630c-5 134 82 152 198 138V13c-22 3-59 7-93 7" id="ae"/><g id="k"><use transform="matrix(0.010850694444444442,0,0,0.010850694444444442,0,0)" xlink:href="#Z"/><use transform="matrix(0.010850694444444442,0,0,0.010850694444444442,18.46788194444444,0)" xlink:href="#aa"/><use transform="matrix(0.010850694444444442,0,0,0.010850694444444442,23.459201388888886,0)" xlink:href="#ab"/><use transform="matrix(0.010850694444444442,0,0,0.010850694444444442,38.54166666666666,0)" xlink:href="#aa"/><use transform="matrix(0.010850694444444442,0,0,0.010850694444444442,43.5329861111111,0)" xlink:href="#ac"/><use transform="matrix(0.010850694444444442,0,0,0.010850694444444442,56.879340277777764,0)" xlink:href="#ad"/><use transform="matrix(0.010850694444444442,0,0,0.010850694444444442,61.45833333333332,0)" xlink:href="#ae"/></g><path fill="#3a414a" d="M505 0v-1281H50v-162h1090v162H685V0H505" id="af"/><path fill="#3a414a" d="M113 0v-1040h174v152h4c47-103 151-172 285-172 142 0 247 73 292 200h4c58-125 180-200 326-200 206 0 339 135 339 342V0h-174v-678c0-143-79-228-216-228-138 0-235 103-235 245V0H738v-697c0-126-84-209-213-209-138 0-238 109-238 254V0H113" id="ag"/><path fill="#3a414a" d="M974-298C943-118 772 19 541 20 242 20 62-189 62-517c0-322 184-543 468-543 304 1 476 237 457 587H238c4 214 122 339 307 339 136-1 230-68 258-164h171zM529-906c-151 0-269 103-288 297h569c-17-202-129-297-281-297" id="ah"/><path fill="#3a414a" d="M979-338C953-135 782 19 544 20 249 20 62-190 62-522c0-328 191-538 480-538 262 1 415 173 435 358H807c-25-110-108-203-265-204-181 0-302 150-302 387 0 242 124 385 304 385 145 0 237-83 264-204h171" id="ai"/><path fill="#3a414a" d="M544 20C254 20 61-190 62-522c0-331 194-538 481-538 288 0 483 207 482 540 0 332-194 540-481 540zm1-154c184 0 303-143 302-388 0-244-120-384-304-384-182 0-304 142-303 386 0 245 121 386 305 386" id="aj"/><path fill="#3a414a" d="M504 20C238 20 62-192 62-521c0-328 178-539 439-539 147 0 268 74 333 194h4v-577h174V0H838v-176h-4C769-55 653 20 504 20zm34-154c176 0 301-153 301-387 0-232-126-385-301-385-184 0-298 148-298 386 0 239 114 386 298 386" id="ak"/><g id="l"><use transform="matrix(0.010850694444444444,0,0,0.010850694444444444,0,0)" xlink:href="#af"/><use transform="matrix(0.010850694444444444,0,0,0.010850694444444444,12.369791666666668,0)" xlink:href="#ad"/><use transform="matrix(0.010850694444444444,0,0,0.010850694444444444,16.94878472222222,0)" xlink:href="#ag"/><use transform="matrix(0.010850694444444444,0,0,0.010850694444444444,34.79817708333333,0)" xlink:href="#ah"/><use transform="matrix(0.010850694444444444,0,0,0.010850694444444444,46.18055555555556,0)" xlink:href="#ai"/><use transform="matrix(0.010850694444444444,0,0,0.010850694444444444,57.31336805555555,0)" xlink:href="#aj"/><use transform="matrix(0.010850694444444444,0,0,0.010850694444444444,69.10807291666666,0)" xlink:href="#ak"/><use transform="matrix(0.010850694444444444,0,0,0.010850694444444444,81.41276041666666,0)" xlink:href="#ah"/><use transform="matrix(0.010850694444444444,0,0,0.010850694444444444,92.79513888888889,0)" xlink:href="#ac"/><use transform="matrix(0.010850694444444444,0,0,0.010850694444444444,106.14149305555556,0)" xlink:href="#ad"/><use transform="matrix(0.010850694444444444,0,0,0.010850694444444444,110.72048611111111,0)" xlink:href="#ae"/></g><path fill="#3a414a" d="M140 0v-1443h180v624h792v-624h180V0h-180v-657H320V0H140" id="al"/><path fill="#3a414a" d="M714 24c-358 0-574-216-574-530v-937h180v925c0 222 144 376 394 376s392-154 392-376v-925h180v937c0 314-214 530-572 530" id="am"/><g id="m"><use transform="matrix(0.010850694444444444,0,0,0.010850694444444444,0,0)" xlink:href="#al"/><use transform="matrix(0.010850694444444444,0,0,0.010850694444444444,15.538194444444445,0)" xlink:href="#am"/><use transform="matrix(0.010850694444444444,0,0,0.010850694444444444,31.01128472222222,0)" xlink:href="#aa"/></g><path fill="#3a414a" d="M939-1053c-18-158-142-247-330-248-193 1-319 93-319 233 0 118 87 192 275 233l160 35c296 65 420 185 420 406 0 256-203 418-533 418C295 23 83-131 70-390h180c16 157 157 246 372 248 208 0 339-94 339-244 0-127-83-198-281-242l-160-35c-282-62-414-189-414-401 1-237 211-403 508-403 287 2 495 166 505 414H939" id="an"/><path fill="#3a414a" d="M110-740c12-181 161-318 410-320 246 0 400 133 400 341V0H746v-169h-4C681-55 556 20 417 20 209 20 70-105 71-296c0-177 138-288 377-302l298-17v-87c0-127-83-204-228-204-138 1-222 66-240 166H110zm139 444c-1 102 81 165 207 165 164 0 290-113 290-264v-85l-278 17c-139 8-219 70-219 167" id="ao"/><path fill="#3a414a" d="M113 0v-1040h174v148h4c56-97 162-168 320-168 228 0 360 148 360 385V0H797v-644c0-169-79-262-239-262-164 0-271 117-271 294V0H113" id="ap"/><path fill="#3a414a" d="M113 0v-1040h174v176h4c43-141 154-221 312-189v169c-177-43-316 47-316 242V0H113" id="aq"/><g id="n"><use transform="matrix(0.010850694444444444,0,0,0.010850694444444444,0,0)" xlink:href="#an"/><use transform="matrix(0.010850694444444444,0,0,0.010850694444444444,13.18359375,0)" xlink:href="#ae"/><use transform="matrix(0.010850694444444444,0,0,0.010850694444444444,19.661458333333332,0)" xlink:href="#ao"/><use transform="matrix(0.010850694444444444,0,0,0.010850694444444444,30.81597222222222,0)" xlink:href="#ap"/><use transform="matrix(0.010850694444444444,0,0,0.010850694444444444,42.52387152777778,0)" xlink:href="#ak"/><use transform="matrix(0.010850694444444444,0,0,0.010850694444444444,54.82855902777778,0)" xlink:href="#ao"/><use transform="matrix(0.010850694444444444,0,0,0.010850694444444444,65.98307291666667,0)" xlink:href="#aq"/><use transform="matrix(0.010850694444444444,0,0,0.010850694444444444,72.28732638888889,0)" xlink:href="#ak"/></g><g id="o"><use transform="matrix(0.010850694444444444,0,0,0.010850694444444444,0,0)" xlink:href="#Z"/><use transform="matrix(0.010850694444444444,0,0,0.010850694444444444,18.467881944444443,0)" xlink:href="#aa"/><use transform="matrix(0.010850694444444444,0,0,0.010850694444444444,23.45920138888889,0)" xlink:href="#ab"/><use transform="matrix(0.010850694444444444,0,0,0.010850694444444444,38.541666666666664,0)" xlink:href="#aa"/></g><path fill="#3a414a" d="M140 0v-1443h876v162H320v496h639v160H320V0H140" id="ar"/><path fill="#3a414a" d="M122 0v-1443h174V0H122" id="as"/><g id="p"><use transform="matrix(0.010850694444444444,0,0,0.010850694444444444,0,0)" xlink:href="#ar"/><use transform="matrix(0.010850694444444444,0,0,0.010850694444444444,11.729600694444445,0)" xlink:href="#ad"/><use transform="matrix(0.010850694444444444,0,0,0.010850694444444444,16.30859375,0)" xlink:href="#as"/><use transform="matrix(0.010850694444444444,0,0,0.010850694444444444,20.84418402777778,0)" xlink:href="#ah"/></g><path fill="#3a414a" d="M1333-441c-52 282-284 465-590 465C342 24 84-268 84-723c0-454 257-744 659-744 304 0 538 185 590 465h-182c-51-187-196-300-408-299-288 0-474 227-474 579 0 351 187 580 474 580 205 1 347-105 408-299h182" id="at"/><g id="q"><use transform="matrix(0.010850694444444444,0,0,0.010850694444444444,0,0)" xlink:href="#Z"/><use transform="matrix(0.010850694444444444,0,0,0.010850694444444444,18.467881944444443,0)" xlink:href="#af"/><use transform="matrix(0.010850694444444444,0,0,0.010850694444444444,30.403645833333332,0)" xlink:href="#at"/></g><path fill="#3a414a" d="M140 0v-1443h894v162H320v463h677v160H320v496h714V0H140" id="au"/><path fill="#3a414a" d="M406 0L23-1040h183l287 855h4l288-855h181L584 0H406" id="av"/><path fill="#3a414a" d="M698-740c-12-106-89-175-221-175-126 0-204 61-204 154 0 71 47 120 162 148l165 40c210 51 286 134 286 283 0 182-172 310-404 310C233 19 85-107 67-300h174c19 111 96 175 242 175 141 0 225-59 225-154 0-75-39-117-157-146l-165-40C190-512 95-603 95-754c0-179 157-306 382-306 233 2 378 135 387 320H698" id="aw"/><g id="r"><use transform="matrix(0.010850694444444444,0,0,0.010850694444444444,0,0)" xlink:href="#au"/><use transform="matrix(0.010850694444444444,0,0,0.010850694444444444,12.272135416666666,0)" xlink:href="#av"/><use transform="matrix(0.010850694444444444,0,0,0.010850694444444444,22.569444444444443,0)" xlink:href="#ah"/><use transform="matrix(0.010850694444444444,0,0,0.010850694444444444,33.951822916666664,0)" xlink:href="#ap"/><use transform="matrix(0.010850694444444444,0,0,0.010850694444444444,45.65972222222222,0)" xlink:href="#ae"/><use transform="matrix(0.010850694444444444,0,0,0.010850694444444444,52.35460069444444,0)" xlink:href="#aw"/></g><path fill="#3a414a" d="M573-1443L166 350H0l407-1793h166" id="ax"/><path fill="#3a414a" d="M750 24C339 24 83-264 84-723c0-457 257-744 666-744s665 288 664 746c0 458-255 745-664 745zm0-166c298 0 481-228 480-581 0-354-186-578-480-578-296 0-483 224-482 580 0 355 186 579 482 579" id="ay"/><g id="s"><use transform="matrix(0.010850694444444444,0,0,0.010850694444444444,0,0)" xlink:href="#aa"/><use transform="matrix(0.010850694444444444,0,0,0.010850694444444444,4.991319444444445,0)" xlink:href="#ax"/><use transform="matrix(0.010850694444444444,0,0,0.010850694444444444,11.197916666666668,0)" xlink:href="#ay"/></g></defs></g></svg>