<svg xmlns="http://www.w3.org/2000/svg" xmlns:xlink="http://www.w3.org/1999/xlink" xmlns:lucid="lucid" width="842" height="307.11"><g transform="translate(-19 -19)" lucid:page-tab-id="0_0"><path d="M20 26a6 6 0 0 1 6-6h828a6 6 0 0 1 6 6v293.1a6 6 0 0 1-6 6H26a6 6 0 0 1-6-6z" stroke="#282c33" stroke-width="2" fill="#fff"/><path d="M119.74 146a6 6 0 0 1 6-6H677.7a6 6 0 0 1 6 6v30.4a6 6 0 0 1-6 6H125.74a6 6 0 0 1-6-6z" stroke="#3a414a" stroke-width="2" fill="#1071e5"/><use xlink:href="#a" transform="matrix(1,0,0,1,131.74291610824275,152) translate(222.40017361111111 17.223958333333336)"/><path d="M700.13 83.6a6 6 0 0 1 6-6h115.52a6 6 0 0 1 6 6V114a6 6 0 0 1-6 6H706.13a6 6 0 0 1-6-6z" stroke="#3a414a" stroke-width="2" fill="#008a0e"/><use xlink:href="#b" transform="matrix(1,0,0,1,712.1340801471736,89.61079747825337) translate(0.05121527777777146 17.223958333333336)"/><path d="M187.65 83.6a6 6 0 0 1 6-6H314a6 6 0 0 1 6 6V114a6 6 0 0 1-6 6H193.65a6 6 0 0 1-6-6z" stroke="#3a414a" stroke-width="2" fill="#008a0e"/><use xlink:href="#c" transform="matrix(1,0,0,1,199.64705868026047,89.61079747825336) translate(-4.145833333333329 16.927083333333336)"/><path d="M336.18 83.6a6 6 0 0 1 6-6H554a6 6 0 0 1 6 6V114a6 6 0 0 1-6 6H342.18a6 6 0 0 1-6-6z" stroke="#3a414a" stroke-width="2" fill="#008a0e"/><use xlink:href="#d" transform="matrix(1,0,0,1,348.1764706598699,89.61079747825337) translate(1.7621527777777715 17.223958333333336)"/><path d="M79.5 270.78a6 6 0 0 1 6-6h748a6 6 0 0 1 6 6v30.4a6 6 0 0 1-6 6h-748a6 6 0 0 1-6-6z" stroke="#3a414a" stroke-width="2" fill="#fcce14"/><use xlink:href="#e" transform="matrix(1,0,0,1,91.48612230927273,276.7784050434933) translate(310.70399305555554 17.223958333333336)"/><path d="M119.43 208.4a6 6 0 0 1 6-6H677.4a6 6 0 0 1 6 6v30.38a6 6 0 0 1-6 6H125.42a6 6 0 0 1-6-6z" stroke="#3a414a" stroke-width="2" fill="#fff"/><use xlink:href="#f" transform="matrix(1,0,0,1,131.42835937637813,214.38920252174665) translate(75.94618055555554 17.223958333333336)"/><use xlink:href="#g" transform="matrix(1,0,0,1,131.42835937637813,214.38920252174665) translate(135.53819444444443 17.223958333333336)"/><use xlink:href="#h" transform="matrix(1,0,0,1,131.42835937637813,214.38920252174665) translate(174.01041666666666 17.223958333333336)"/><use xlink:href="#i" transform="matrix(1,0,0,1,131.42835937637813,214.38920252174665) translate(218.78472222222223 17.223958333333336)"/><use xlink:href="#j" transform="matrix(1,0,0,1,131.42835937637813,214.38920252174665) translate(244.74826388888889 17.223958333333336)"/><use xlink:href="#k" transform="matrix(1,0,0,1,131.42835937637813,214.38920252174665) translate(319.0017361111111 17.223958333333336)"/><use xlink:href="#l" transform="matrix(1,0,0,1,131.42835937637813,214.38920252174665) translate(341.44965277777777 17.223958333333336)"/><use xlink:href="#m" transform="matrix(1,0,0,1,131.42835937637813,214.38920252174665) translate(388.6545138888889 17.223958333333336)"/><path d="M26 307.17a6 6 0 0 1-6-6V43.95a6 6 0 0 1 6-6h47.5a6 6 0 0 1 6 6v257.22a6 6 0 0 1-6 6z" stroke="#000" stroke-opacity="0" stroke-width="2" fill="#fff" fill-opacity="0"/><use xlink:href="#n" transform="matrix(6.123233995736766e-17,-1,1,6.123233995736766e-17,25.00000000000003,302.16760756524) translate(88.10546875 31.93359375)"/><path d="M447.1 66.14v-.02a1 1 0 0 1 1-1 1 1 0 0 1 1 1 1 1 0 0 1-1 1 1 1 0 0 1-1-1m0 4.76a1 1 0 0 1 1-1 1 1 0 0 1 1 1 1 1 0 0 1-1 1 1 1 0 0 1-1-1v-.02" fill="#3a414a"/><path d="M449.06 66.15h-1.95v-1.03h1.96zM449.06 76.6h-1.95V75.6h1.96z" stroke="#3a414a" stroke-width=".05" fill="#3a414a"/><path d="M418.1 32.42a6 6 0 0 1 6-6h48a6 6 0 0 1 6 6v26.7a6 6 0 0 1-6 6h-48a6 6 0 0 1-6-6z" stroke="#000" stroke-opacity="0" fill="#fff" fill-opacity="0"/><use xlink:href="#o" transform="matrix(1,0,0,1,423.08823532993506,31.417050846427557) translate(10.598958333333332 21.005208333333336)"/><path d="M762.9 66.14v-.02a1 1 0 0 1 1-1 1 1 0 0 1 1 1 1 1 0 0 1-1 1 1 1 0 0 1-1-1m0 4.76a1 1 0 0 1 1-1 1 1 0 0 1 1 1 1 1 0 0 1-1 1 1 1 0 0 1-1-1v-.02" fill="#3a414a"/><path d="M764.87 66.15h-1.95v-1.03h1.95zM764.87 76.6h-1.95V75.6h1.95z" stroke="#3a414a" stroke-width=".05" fill="#3a414a"/><path d="M673.9 32.42a6 6 0 0 1 6-6h168a6 6 0 0 1 6 6v26.7a6 6 0 0 1-6 6h-168a6 6 0 0 1-6-6z" stroke="#000" stroke-opacity="0" fill="#fff" fill-opacity="0"/><use xlink:href="#p" transform="matrix(1,0,0,1,678.8905694137171,31.417050846427557) translate(17.213541666666657 21.005208333333336)"/><use xlink:href="#q" transform="matrix(1,0,0,1,678.8905694137171,31.417050846427557) translate(88.5329861111111 21.005208333333336)"/><use xlink:href="#r" transform="matrix(1,0,0,1,678.8905694137171,31.417050846427557) translate(127.00520833333333 21.005208333333336)"/><path d="M252.82 66.14v-.02a1 1 0 0 1 1-1 1 1 0 0 1 1 1 1 1 0 0 1-1 1 1 1 0 0 1-1-1m0 4.76a1 1 0 0 1 1-1 1 1 0 0 1 1 1 1 1 0 0 1-1 1 1 1 0 0 1-1-1v-.02" fill="#3a414a"/><path d="M254.8 66.15h-1.95v-1.03h1.95zM254.8 76.6h-1.95V75.6h1.95z" stroke="#3a414a" stroke-width=".05" fill="#3a414a"/><path d="M223.82 32.42a6 6 0 0 1 6-6h48a6 6 0 0 1 6 6v26.7a6 6 0 0 1-6 6h-48a6 6 0 0 1-6-6z" stroke="#000" stroke-opacity="0" fill="#fff" fill-opacity="0"/><use xlink:href="#s" transform="matrix(1,0,0,1,228.82352934013022,31.417050846427557) translate(6.740451388888889 21.005208333333336)"/><path d="M60 32.42a6 6 0 0 1 6-6h68a6 6 0 0 1 6 6v26.7a6 6 0 0 1-6 6H66a6 6 0 0 1-6-6z" stroke="#000" stroke-opacity="0" fill="#fff" fill-opacity="0"/><use xlink:href="#t" transform="matrix(1,0,0,1,65,31.417050846427557) translate(10.421875 21.005208333333336)"/><path d="M99 66.14v-.02a1 1 0 0 1 1-1 1 1 0 0 1 1 1 1 1 0 0 1-1 1 1 1 0 0 1-1-1m0 3.9V70a1 1 0 0 1 1-1 1 1 0 0 1 1 1 1 1 0 0 1-1 1 1 1 0 0 1-1-1m0 3.88a1 1 0 0 1 1-1 1 1 0 0 1 1 1 1 1 0 0 1-1 1 1 1 0 0 1-1-1v-.02m0 3.9a1 1 0 0 1 1-1 1 1 0 0 1 1 1 1 1 0 0 1-1 1 1 1 0 0 1-1-1v-.02m0 3.9v-.02a1 1 0 0 1 1-1 1 1 0 0 1 1 1 1 1 0 0 1-1 1 1 1 0 0 1-1-1m0 3.9v-.02a1 1 0 0 1 1-1 1 1 0 0 1 1 1 1 1 0 0 1-1 1 1 1 0 0 1-1-1m0 3.88a1 1 0 0 1 1-1 1 1 0 0 1 1 1 1 1 0 0 1-1 1 1 1 0 0 1-1-1v-.02m0 3.9a1 1 0 0 1 1-1 1 1 0 0 1 1 1 1 1 0 0 1-1 1 1 1 0 0 1-1-1v-.02m0 3.9v-.02a1 1 0 0 1 1-1 1 1 0 0 1 1 1 1 1 0 0 1-1 1 1 1 0 0 1-1-1m0 3.88a1 1 0 0 1 1-1 1 1 0 0 1 1 1 1 1 0 0 1-1 1 1 1 0 0 1-1-1v-.02m0 3.9a1 1 0 0 1 1-1 1 1 0 0 1 1 1 1 1 0 0 1-1 1 1 1 0 0 1-1-1v-.02m-.5 4.58a1 1 0 0 1 1-1 1 1 0 0 1 1 1 1 1 0 0 1-1 1 1 1 0 0 1-1-1v-.02m0 4.06a1 1 0 0 1 1-1 1 1 0 0 1 1 1 1 1 0 0 1-1 1 1 1 0 0 1-1-1v-.02m0 4.06a1 1 0 0 1 1-1 1 1 0 0 1 1 1 1 1 0 0 1-1 1 1 1 0 0 1-1-1v-.02m0 4.07a1 1 0 0 1 1-1 1 1 0 0 1 1 1 1 1 0 0 1-1 1 1 1 0 0 1-1-1v-.02m0 4.06a1 1 0 0 1 1-1 1 1 0 0 1 1 1 1 1 0 0 1-1 1 1 1 0 0 1-1-1m0 4.05a1 1 0 0 1 1-1 1 1 0 0 1 1 1 1 1 0 0 1-1 1 1 1 0 0 1-1-1v-.02m0 4.07a1 1 0 0 1 1-1 1 1 0 0 1 1 1 1 1 0 0 1-1 1 1 1 0 0 1-1-1v-.02m0 4.06a1 1 0 0 1 1-1 1 1 0 0 1 1 1 1 1 0 0 1-1 1 1 1 0 0 1-1-1v-.02m0 4.06a1 1 0 0 1 1-1 1 1 0 0 1 1 1 1 1 0 0 1-1 1 1 1 0 0 1-1-1v-.02m0 4.07a1 1 0 0 1 1-1 1 1 0 0 1 1 1 1 1 0 0 1-1 1 1 1 0 0 1-1-1v-.02m0 4.07a1 1 0 0 1 1-1 1 1 0 0 1 1 1 1 1 0 0 1-1 1 1 1 0 0 1-1-1v-.02m0 4.06a1 1 0 0 1 1-1 1 1 0 0 1 1 1 1 1 0 0 1-1 1 1 1 0 0 1-1-1m0 4.06a1 1 0 0 1 1-1 1 1 0 0 1 1 1 1 1 0 0 1-1 1 1 1 0 0 1-1-1v-.02m0 4.06a1 1 0 0 1 1-1 1 1 0 0 1 1 1 1 1 0 0 1-1 1 1 1 0 0 1-1-1v-.02m0 4.06a1 1 0 0 1 1-1 1 1 0 0 1 1 1 1 1 0 0 1-1 1 1 1 0 0 1-1-1V166m0 4.07v-.02a1 1 0 0 1 1-1 1 1 0 0 1 1 1 1 1 0 0 1-1 1 1 1 0 0 1-1-1m0 4.05a1 1 0 0 1 1-1 1 1 0 0 1 1 1 1 1 0 0 1-1 1 1 1 0 0 1-1-1v-.02m0 4.07a1 1 0 0 1 1-1 1 1 0 0 1 1 1 1 1 0 0 1-1 1 1 1 0 0 1-1-1v-.02m0 4.07a1 1 0 0 1 1-1 1 1 0 0 1 1 1 1 1 0 0 1-1 1 1 1 0 0 1-1-1v-.02m0 4.06a1 1 0 0 1 1-1 1 1 0 0 1 1 1 1 1 0 0 1-1 1 1 1 0 0 1-1-1v-.02m0 4.06a1 1 0 0 1 1-1 1 1 0 0 1 1 1 1 1 0 0 1-1 1 1 1 0 0 1-1-1v-.02m0 4.07a1 1 0 0 1 1-1 1 1 0 0 1 1 1 1 1 0 0 1-1 1 1 1 0 0 1-1-1v-.02m0 4.06v-.02a1 1 0 0 1 1-1 1 1 0 0 1 1 1 1 1 0 0 1-1 1 1 1 0 0 1-1-1m0 4.05a1 1 0 0 1 1-1 1 1 0 0 1 1 1 1 1 0 0 1-1 1 1 1 0 0 1-1-1v-.02m0 4.07a1 1 0 0 1 1-1 1 1 0 0 1 1 1 1 1 0 0 1-1 1 1 1 0 0 1-1-1m0 4.05a1 1 0 0 1 1-1 1 1 0 0 1 1 1 1 1 0 0 1-1 1 1 1 0 0 1-1-1v-.02m0 4.06a1 1 0 0 1 1-1 1 1 0 0 1 1 1 1 1 0 0 1-1 1 1 1 0 0 1-1-1v-.02m0 4.06a1 1 0 0 1 1-1 1 1 0 0 1 1 1 1 1 0 0 1-1 1 1 1 0 0 1-1-1m0 4.05a1 1 0 0 1 1-1 1 1 0 0 1 1 1 1 1 0 0 1-1 1 1 1 0 0 1-1-1v-.02m0 4.06v-.02a1 1 0 0 1 1-1 1 1 0 0 1 1 1 1 1 0 0 1-1 1 1 1 0 0 1-1-1m0 4.06v-.02a1 1 0 0 1 1-1 1 1 0 0 1 1 1 1 1 0 0 1-1 1 1 1 0 0 1-1-1m0 4.06a1 1 0 0 1 1-1 1 1 0 0 1 1 1 1 1 0 0 1-1 1 1 1 0 0 1-1-1v-.02m0 4.06a1 1 0 0 1 1-1 1 1 0 0 1 1 1 1 1 0 0 1-1 1 1 1 0 0 1-1-1v-.02m0 4.06a1 1 0 0 1 1-1 1 1 0 0 1 1 1 1 1 0 0 1-1 1 1 1 0 0 1-1-1v-.02m0 4.07a1 1 0 0 1 1-1 1 1 0 0 1 1 1 1 1 0 0 1-1 1 1 1 0 0 1-1-1m0 4.05a1 1 0 0 1 1-1 1 1 0 0 1 1 1 1 1 0 0 1-1 1 1 1 0 0 1-1-1v-.02m0 4.06a1 1 0 0 1 1-1 1 1 0 0 1 1 1 1 1 0 0 1-1 1 1 1 0 0 1-1-1v-.03m0 4.07a1 1 0 0 1 1-1 1 1 0 0 1 1 1 1 1 0 0 1-1 1 1 1 0 0 1-1-1V259m0 4.06a1 1 0 0 1 1-1 1 1 0 0 1 1 1 1 1 0 0 1-1 1 1 1 0 0 1-1-1v-.02" fill="#3a414a"/><path d="M100.97 66.15h-1.94v-1.03h1.94zM100.46 263.78H98.5v-.73h1.96z" stroke="#3a414a" stroke-width=".05" fill="#3a414a"/><path d="M140 32.42a6 6 0 0 1 6-6h48a6 6 0 0 1 6 6v26.7a6 6 0 0 1-6 6h-48a6 6 0 0 1-6-6z" stroke="#000" stroke-opacity="0" fill="#fff" fill-opacity="0"/><use xlink:href="#u" transform="matrix(1,0,0,1,145.00000000000063,31.417050846427557) translate(14.019097222222221 21.005208333333336)"/><path d="M169 66.14v-.02a1 1 0 0 1 1-1 1 1 0 0 1 1 1 1 1 0 0 1-1 1 1 1 0 0 1-1-1m0 3.95a1 1 0 0 1 1-1 1 1 0 0 1 1 1 1 1 0 0 1-1 1 1 1 0 0 1-1-1v-.02m0 3.96a1 1 0 0 1 1-1 1 1 0 0 1 1 1 1 1 0 0 1-1 1 1 1 0 0 1-1-1m-1.76 4.25a1 1 0 0 1 1-1 1 1 0 0 1 1 1 1 1 0 0 1-1 1 1 1 0 0 1-1-1v-.02M163 80a1 1 0 0 1 1-1 1 1 0 0 1 1 1 1 1 0 0 1-1 1 1 1 0 0 1-1-1m-5.08 0a1 1 0 0 1 1-1 1 1 0 0 1 1 1 1 1 0 0 1-1 1 1 1 0 0 1-1-1m-4.25 1.77a1 1 0 0 1 1-1 1 1 0 0 1 1 1 1 1 0 0 1-1 1 1 1 0 0 1-1-1v-.02M151.92 86a1 1 0 0 1 1-1 1 1 0 0 1 1 1 1 1 0 0 1-1 1 1 1 0 0 1-1-1m0 4.03a1 1 0 0 1 1-1 1 1 0 0 1 1 1 1 1 0 0 1-1 1 1 1 0 0 1-1-1V90m0 4.06v-.02a1 1 0 0 1 1-1 1 1 0 0 1 1 1 1 1 0 0 1-1 1 1 1 0 0 1-1-1m0 4.04a1 1 0 0 1 1-1 1 1 0 0 1 1 1 1 1 0 0 1-1 1 1 1 0 0 1-1-1v-.02m0 4.04a1 1 0 0 1 1-1 1 1 0 0 1 1 1 1 1 0 0 1-1 1 1 1 0 0 1-1-1v-.02m0 4.04a1 1 0 0 1 1-1 1 1 0 0 1 1 1 1 1 0 0 1-1 1 1 1 0 0 1-1-1v-.02m0 4.05v-.02a1 1 0 0 1 1-1 1 1 0 0 1 1 1 1 1 0 0 1-1 1 1 1 0 0 1-1-1m0 4.04a1 1 0 0 1 1-1 1 1 0 0 1 1 1 1 1 0 0 1-1 1 1 1 0 0 1-1-1v-.02m0 4.04v-.02a1 1 0 0 1 1-1 1 1 0 0 1 1 1 1 1 0 0 1-1 1 1 1 0 0 1-1-1m0 4.03a1 1 0 0 1 1-1 1 1 0 0 1 1 1 1 1 0 0 1-1 1 1 1 0 0 1-1-1m0 4.04a1 1 0 0 1 1-1 1 1 0 0 1 1 1 1 1 0 0 1-1 1 1 1 0 0 1-1-1v-.02m0 4.04a1 1 0 0 1 1-1 1 1 0 0 1 1 1 1 1 0 0 1-1 1 1 1 0 0 1-1-1v-.02m0 4.04a1 1 0 0 1 1-1 1 1 0 0 1 1 1 1 1 0 0 1-1 1 1 1 0 0 1-1-1v-.02" fill="#3a414a"/><path d="M170.97 66.15h-1.94v-1.03h1.94zM153.9 139h-1.96v-.73h1.95z" stroke="#3a414a" stroke-width=".05" fill="#3a414a"/><path d="M447.1 121.7a1 1 0 0 1 1-1 1 1 0 0 1 1 1 1 1 0 0 1-1 1 1 1 0 0 1-1-1v-.02m0 3.98a1 1 0 0 1 1-1 1 1 0 0 1 1 1 1 1 0 0 1-1 1 1 1 0 0 1-1-1v-.02m0 4v-.02a1 1 0 0 1 1-1 1 1 0 0 1 1 1 1 1 0 0 1-1 1 1 1 0 0 1-1-1m.44 4.42a1 1 0 0 1 1-1 1 1 0 0 1 1 1 1 1 0 0 1-1 1 1 1 0 0 1-1-1V134m0 4V138a1 1 0 0 1 1-1 1 1 0 0 1 1 1 1 1 0 0 1-1 1 1 1 0 0 1-1-1" fill="#3a414a"/><path d="M449.06 121.7h-1.95v-.7h1.96zM449.5 139h-1.94v-1.03h1.95z" stroke="#3a414a" stroke-width=".05" fill="#3a414a"/><path d="M400.4 184.4a1 1 0 0 1 1-1 1 1 0 0 1 1 1 1 1 0 0 1-1 1 1 1 0 0 1-1-1v-.02m0 4.02a1 1 0 0 1 1-1 1 1 0 0 1 1 1 1 1 0 0 1-1 1 1 1 0 0 1-1-1v-.02m0 4.02a1 1 0 0 1 1-1 1 1 0 0 1 1 1 1 1 0 0 1-1 1 1 1 0 0 1-1-1v-.02m0 4.02a1 1 0 0 1 1-1 1 1 0 0 1 1 1 1 1 0 0 1-1 1 1 1 0 0 1-1-1v-.02" fill="#3a414a"/><path d="M402.38 184.4h-1.95v-1h1.95zM402.38 201.4h-1.95v-1.04h1.95z" stroke="#3a414a" stroke-width=".05" fill="#3a414a"/><path d="M762.9 122a1 1 0 0 1 1-1 1 1 0 0 1 1 1 1 1 0 0 1-1 1 1 1 0 0 1-1-1m0 3.92a1 1 0 0 1 1-1 1 1 0 0 1 1 1 1 1 0 0 1-1 1 1 1 0 0 1-1-1v-.02m0 3.92a1 1 0 0 1 1-1 1 1 0 0 1 1 1 1 1 0 0 1-1 1 1 1 0 0 1-1-1v-.02m0 3.93a1 1 0 0 1 1-1 1 1 0 0 1 1 1 1 1 0 0 1-1 1 1 1 0 0 1-1-1v-.02m0 3.93a1 1 0 0 1 1-1 1 1 0 0 1 1 1 1 1 0 0 1-1 1 1 1 0 0 1-1-1v-.02m0 3.94a1 1 0 0 1 1-1 1 1 0 0 1 1 1 1 1 0 0 1-1 1 1 1 0 0 1-1-1v-.02m0 3.92a1 1 0 0 1 1-1 1 1 0 0 1 1 1 1 1 0 0 1-1 1 1 1 0 0 1-1-1v-.02m0 3.93a1 1 0 0 1 1-1 1 1 0 0 1 1 1 1 1 0 0 1-1 1 1 1 0 0 1-1-1v-.02m0 3.92a1 1 0 0 1 1-1 1 1 0 0 1 1 1 1 1 0 0 1-1 1 1 1 0 0 1-1-1v-.02m0 3.93a1 1 0 0 1 1-1 1 1 0 0 1 1 1 1 1 0 0 1-1 1 1 1 0 0 1-1-1v-.02m0 3.93a1 1 0 0 1 1-1 1 1 0 0 1 1 1 1 1 0 0 1-1 1 1 1 0 0 1-1-1v-.03m0 3.93a1 1 0 0 1 1-1 1 1 0 0 1 1 1 1 1 0 0 1-1 1 1 1 0 0 1-1-1v-.02m0 3.93a1 1 0 0 1 1-1 1 1 0 0 1 1 1 1 1 0 0 1-1 1 1 1 0 0 1-1-1v-.02m0 3.92a1 1 0 0 1 1-1 1 1 0 0 1 1 1 1 1 0 0 1-1 1 1 1 0 0 1-1-1v-.02m0 3.93v-.02a1 1 0 0 1 1-1 1 1 0 0 1 1 1 1 1 0 0 1-1 1 1 1 0 0 1-1-1m0 3.9a1 1 0 0 1 1-1 1 1 0 0 1 1 1 1 1 0 0 1-1 1 1 1 0 0 1-1-1m0 3.92a1 1 0 0 1 1-1 1 1 0 0 1 1 1 1 1 0 0 1-1 1 1 1 0 0 1-1-1v-.02m0 3.92a1 1 0 0 1 1-1 1 1 0 0 1 1 1 1 1 0 0 1-1 1 1 1 0 0 1-1-1v-.02m0 3.93a1 1 0 0 1 1-1 1 1 0 0 1 1 1 1 1 0 0 1-1 1 1 1 0 0 1-1-1m-.52 4.43a1 1 0 0 1 1-1 1 1 0 0 1 1 1 1 1 0 0 1-1 1 1 1 0 0 1-1-1v-.02m0 3.93a1 1 0 0 1 1-1 1 1 0 0 1 1 1 1 1 0 0 1-1 1 1 1 0 0 1-1-1v-.02m0 3.94a1 1 0 0 1 1-1 1 1 0 0 1 1 1 1 1 0 0 1-1 1 1 1 0 0 1-1-1v-.02m0 3.92a1 1 0 0 1 1-1 1 1 0 0 1 1 1 1 1 0 0 1-1 1 1 1 0 0 1-1-1m0 3.9a1 1 0 0 1 1-1 1 1 0 0 1 1 1 1 1 0 0 1-1 1 1 1 0 0 1-1-1m0 3.92a1 1 0 0 1 1-1 1 1 0 0 1 1 1 1 1 0 0 1-1 1 1 1 0 0 1-1-1v-.02m0 3.92a1 1 0 0 1 1-1 1 1 0 0 1 1 1 1 1 0 0 1-1 1 1 1 0 0 1-1-1v-.02m0 3.93a1 1 0 0 1 1-1 1 1 0 0 1 1 1 1 1 0 0 1-1 1 1 1 0 0 1-1-1v-.02m0 3.92a1 1 0 0 1 1-1 1 1 0 0 1 1 1 1 1 0 0 1-1 1 1 1 0 0 1-1-1v-.02m0 3.93a1 1 0 0 1 1-1 1 1 0 0 1 1 1 1 1 0 0 1-1 1 1 1 0 0 1-1-1v-.02m0 3.92a1 1 0 0 1 1-1 1 1 0 0 1 1 1 1 1 0 0 1-1 1 1 1 0 0 1-1-1v-.02m0 3.93v-.02a1 1 0 0 1 1-1 1 1 0 0 1 1 1 1 1 0 0 1-1 1 1 1 0 0 1-1-1m0 3.9a1 1 0 0 1 1-1 1 1 0 0 1 1 1 1 1 0 0 1-1 1 1 1 0 0 1-1-1m0 3.92a1 1 0 0 1 1-1 1 1 0 0 1 1 1 1 1 0 0 1-1 1 1 1 0 0 1-1-1v-.02m0 3.93a1 1 0 0 1 1-1 1 1 0 0 1 1 1 1 1 0 0 1-1 1 1 1 0 0 1-1-1m0 3.9a1 1 0 0 1 1-1 1 1 0 0 1 1 1 1 1 0 0 1-1 1 1 1 0 0 1-1-1m0 3.92a1 1 0 0 1 1-1 1 1 0 0 1 1 1 1 1 0 0 1-1 1 1 1 0 0 1-1-1v-.02m0 3.92a1 1 0 0 1 1-1 1 1 0 0 1 1 1 1 1 0 0 1-1 1 1 1 0 0 1-1-1v-.02" fill="#3a414a"/><path d="M764.87 122.03h-1.95V121h1.95zM764.35 263.78h-1.95v-.7h1.95z" stroke="#3a414a" stroke-width=".05" fill="#3a414a"/><path d="M252.82 122a1 1 0 0 1 1-1 1 1 0 0 1 1 1 1 1 0 0 1-1 1 1 1 0 0 1-1-1m0 4.03a1 1 0 0 1 1-1 1 1 0 0 1 1 1 1 1 0 0 1-1 1 1 1 0 0 1-1-1V126m0 4.05a1 1 0 0 1 1-1 1 1 0 0 1 1 1 1 1 0 0 1-1 1 1 1 0 0 1-1-1v-.02m-.25 4.3v-.02a1 1 0 0 1 1-1 1 1 0 0 1 1 1 1 1 0 0 1-1 1 1 1 0 0 1-1-1m0 4.04a1 1 0 0 1 1-1 1 1 0 0 1 1 1 1 1 0 0 1-1 1 1 1 0 0 1-1-1v-.02" fill="#3a414a"/><path d="M254.8 122.03h-1.95V121h1.95zM254.54 139h-1.95v-.7h1.94z" stroke="#3a414a" stroke-width=".05" fill="#3a414a"/><path d="M576.18 83.6a6 6 0 0 1 6-6h95.78a6 6 0 0 1 6 6V114a6 6 0 0 1-6 6h-95.78a6 6 0 0 1-6-6z" stroke="#3a414a" stroke-width="2" fill="#008a0e"/><use xlink:href="#v" transform="matrix(1,0,0,1,588.1764706598699,89.61079747825337) translate(-5.565104166666664 16.927083333333336)"/><path d="M600.07 32.42a6 6 0 0 1 6-6h48a6 6 0 0 1 6 6v26.7a6 6 0 0 1-6 6h-48a6 6 0 0 1-6-6z" stroke="#000" stroke-opacity="0" fill="#fff" fill-opacity="0"/><use xlink:href="#w" transform="matrix(1,0,0,1,605.0670400735868,31.417050846427557) translate(16.81423611111111 21.005208333333336)"/><path d="M629.07 75.62a1 1 0 0 1 1-1 1 1 0 0 1 1 1 1 1 0 0 1-1 1 1 1 0 0 1-1-1v-.02m0-4.72a1 1 0 0 1 1-1 1 1 0 0 1 1 1 1 1 0 0 1-1 1 1 1 0 0 1-1-1v-.02" fill="#3a414a"/><path d="M631.04 76.6h-1.95V75.6h1.94zM631.04 66.15h-1.95v-1.03h1.94z" stroke="#3a414a" stroke-width=".05" fill="#3a414a"/><path d="M629.07 122a1 1 0 0 1 1-1 1 1 0 0 1 1 1 1 1 0 0 1-1 1 1 1 0 0 1-1-1m0 4.03a1 1 0 0 1 1-1 1 1 0 0 1 1 1 1 1 0 0 1-1 1 1 1 0 0 1-1-1V126m0 4.05a1 1 0 0 1 1-1 1 1 0 0 1 1 1 1 1 0 0 1-1 1 1 1 0 0 1-1-1v-.02m-.26 4.3v-.02a1 1 0 0 1 1-1 1 1 0 0 1 1 1 1 1 0 0 1-1 1 1 1 0 0 1-1-1m0 4.04a1 1 0 0 1 1-1 1 1 0 0 1 1 1 1 1 0 0 1-1 1 1 1 0 0 1-1-1v-.02" fill="#3a414a"/><path d="M631.04 122.03h-1.95V121h1.94zM630.8 139h-1.96v-.7h1.94z" stroke="#3a414a" stroke-width=".05" fill="#3a414a"/><path d="M400.4 246.8v-.02a1 1 0 0 1 1-1 1 1 0 0 1 1 1 1 1 0 0 1-1 1 1 1 0 0 1-1-1m0 4a1 1 0 0 1 1-1 1 1 0 0 1 1 1 1 1 0 0 1-1 1 1 1 0 0 1-1-1m0 4a1 1 0 0 1 1-1 1 1 0 0 1 1 1 1 1 0 0 1-1 1 1 1 0 0 1-1-1m0 4a1 1 0 0 1 1-1 1 1 0 0 1 1 1 1 1 0 0 1-1 1 1 1 0 0 1-1-1" fill="#3a414a"/><path d="M402.38 246.8h-1.95v-1.02h1.95zM402.38 263.78h-1.95v-1.03h1.95z" stroke="#3a414a" stroke-width=".05" fill="#3a414a"/><defs><path fill="#fff" d="M698-740c-12-106-89-175-221-175-126 0-204 61-204 154 0 71 47 120 162 148l165 40c210 51 286 134 286 283 0 182-172 310-404 310C233 19 85-107 67-300h174c19 111 96 175 242 175 141 0 225-59 225-154 0-75-39-117-157-146l-165-40C190-512 95-603 95-754c0-179 157-306 382-306 233 2 378 135 387 320H698" id="x"/><path fill="#fff" d="M319 0L28-1040h173l208 846h4l235-846h168l236 846h4l208-846h172L1146 0H969L734-805h-4L496 0H319" id="y"/><path fill="#fff" d="M211-1216c-60 0-109-49-109-109 0-61 49-109 109-109 61 0 109 48 109 109 0 60-48 109-109 109zM124 0v-1040h174V0H124" id="z"/><path fill="#fff" d="M169 0v-896H24v-144h145v-128c0-200 93-295 285-295 39 0 80 3 106 7v141c-127-19-226 14-219 148v127h214v144H343V0H169" id="A"/><path fill="#fff" d="M451 20c-191 0-285-86-285-285v-631H14v-144h152v-281h180v281h198v144H346v630c-5 134 82 152 198 138V13c-22 3-59 7-93 7" id="B"/><path fill="#fff" d="M119-504v-162h640v162H119" id="C"/><path fill="#fff" d="M113 0v-1040h174v152h4c47-103 151-172 285-172 142 0 247 73 292 200h4c58-125 180-200 326-200 206 0 339 135 339 342V0h-174v-678c0-143-79-228-216-228-138 0-235 103-235 245V0H738v-697c0-126-84-209-213-209-138 0-238 109-238 254V0H113" id="D"/><path fill="#fff" d="M504 20C238 20 62-192 62-521c0-328 178-539 439-539 147 0 268 74 333 194h4v-577h174V0H838v-176h-4C769-55 653 20 504 20zm34-154c176 0 301-153 301-387 0-232-126-385-301-385-184 0-298 148-298 386 0 239 114 386 298 386" id="E"/><path fill="#fff" d="M544 20C254 20 61-190 62-522c0-331 194-538 481-538 288 0 483 207 482 540 0 332-194 540-481 540zm1-154c184 0 303-143 302-388 0-244-120-384-304-384-182 0-304 142-303 386 0 245 121 386 305 386" id="F"/><g id="a"><use transform="matrix(0.008680555555555556,0,0,0.008680555555555556,0,0)" xlink:href="#x"/><use transform="matrix(0.008680555555555556,0,0,0.008680555555555556,8.272569444444445,0)" xlink:href="#y"/><use transform="matrix(0.008680555555555556,0,0,0.008680555555555556,20.989583333333336,0)" xlink:href="#z"/><use transform="matrix(0.008680555555555556,0,0,0.008680555555555556,24.65277777777778,0)" xlink:href="#A"/><use transform="matrix(0.008680555555555556,0,0,0.008680555555555556,30.052083333333336,0)" xlink:href="#B"/><use transform="matrix(0.008680555555555556,0,0,0.008680555555555556,35.407986111111114,0)" xlink:href="#C"/><use transform="matrix(0.008680555555555556,0,0,0.008680555555555556,43.02951388888889,0)" xlink:href="#D"/><use transform="matrix(0.008680555555555556,0,0,0.008680555555555556,57.309027777777786,0)" xlink:href="#z"/><use transform="matrix(0.008680555555555556,0,0,0.008680555555555556,60.97222222222222,0)" xlink:href="#E"/><use transform="matrix(0.008680555555555556,0,0,0.008680555555555556,70.81597222222223,0)" xlink:href="#z"/><use transform="matrix(0.008680555555555556,0,0,0.008680555555555556,74.47916666666667,0)" xlink:href="#C"/><use transform="matrix(0.008680555555555556,0,0,0.008680555555555556,82.10069444444444,0)" xlink:href="#z"/><use transform="matrix(0.008680555555555556,0,0,0.008680555555555556,85.76388888888889,0)" xlink:href="#F"/></g><path fill="#fff" d="M122 0v-1443h174V0H122" id="G"/><path fill="#fff" d="M974-298C943-118 772 19 541 20 242 20 62-189 62-517c0-322 184-543 468-543 304 1 476 237 457 587H238c4 214 122 339 307 339 136-1 230-68 258-164h171zM529-906c-151 0-269 103-288 297h569c-17-202-129-297-281-297" id="H"/><g id="b"><use transform="matrix(0.008680555555555556,0,0,0.008680555555555556,0,0)" xlink:href="#x"/><use transform="matrix(0.008680555555555556,0,0,0.008680555555555556,8.272569444444445,0)" xlink:href="#y"/><use transform="matrix(0.008680555555555556,0,0,0.008680555555555556,20.989583333333336,0)" xlink:href="#z"/><use transform="matrix(0.008680555555555556,0,0,0.008680555555555556,24.65277777777778,0)" xlink:href="#A"/><use transform="matrix(0.008680555555555556,0,0,0.008680555555555556,30.052083333333336,0)" xlink:href="#B"/><use transform="matrix(0.008680555555555556,0,0,0.008680555555555556,35.407986111111114,0)" xlink:href="#C"/><use transform="matrix(0.008680555555555556,0,0,0.008680555555555556,43.02951388888889,0)" xlink:href="#D"/><use transform="matrix(0.008680555555555556,0,0,0.008680555555555556,57.309027777777786,0)" xlink:href="#z"/><use transform="matrix(0.008680555555555556,0,0,0.008680555555555556,60.97222222222222,0)" xlink:href="#E"/><use transform="matrix(0.008680555555555556,0,0,0.008680555555555556,70.81597222222223,0)" xlink:href="#z"/><use transform="matrix(0.008680555555555556,0,0,0.008680555555555556,74.47916666666667,0)" xlink:href="#C"/><use transform="matrix(0.008680555555555556,0,0,0.008680555555555556,82.10069444444444,0)" xlink:href="#A"/><use transform="matrix(0.008680555555555556,0,0,0.008680555555555556,87.5,0)" xlink:href="#z"/><use transform="matrix(0.008680555555555556,0,0,0.008680555555555556,91.16319444444444,0)" xlink:href="#G"/><use transform="matrix(0.008680555555555556,0,0,0.008680555555555556,94.79166666666667,0)" xlink:href="#H"/></g><path fill="#fff" d="M566 65c-83 230-200 311-446 277V200c137 18 224-4 269-140l21-59L24-1040h186l287 866h4l288-866h183" id="I"/><path fill="#fff" d="M113 0v-1040h174v148h4c56-97 162-168 320-168 228 0 360 148 360 385V0H797v-644c0-169-79-262-239-262-164 0-271 117-271 294V0H113" id="J"/><path fill="#fff" d="M979-338C953-135 782 19 544 20 249 20 62-190 62-522c0-328 191-538 480-538 262 1 415 173 435 358H807c-25-110-108-203-265-204-181 0-302 150-302 387 0 242 124 385 304 385 145 0 237-83 264-204h171" id="K"/><g id="c"><use transform="matrix(0.008680555555555556,0,0,0.008680555555555556,0,0)" xlink:href="#x"/><use transform="matrix(0.008680555555555556,0,0,0.008680555555555556,8.272569444444445,0)" xlink:href="#y"/><use transform="matrix(0.008680555555555556,0,0,0.008680555555555556,20.989583333333336,0)" xlink:href="#z"/><use transform="matrix(0.008680555555555556,0,0,0.008680555555555556,24.65277777777778,0)" xlink:href="#A"/><use transform="matrix(0.008680555555555556,0,0,0.008680555555555556,30.052083333333336,0)" xlink:href="#B"/><use transform="matrix(0.008680555555555556,0,0,0.008680555555555556,35.407986111111114,0)" xlink:href="#C"/><use transform="matrix(0.008680555555555556,0,0,0.008680555555555556,43.02951388888889,0)" xlink:href="#D"/><use transform="matrix(0.008680555555555556,0,0,0.008680555555555556,57.309027777777786,0)" xlink:href="#z"/><use transform="matrix(0.008680555555555556,0,0,0.008680555555555556,60.97222222222222,0)" xlink:href="#E"/><use transform="matrix(0.008680555555555556,0,0,0.008680555555555556,70.81597222222223,0)" xlink:href="#z"/><use transform="matrix(0.008680555555555556,0,0,0.008680555555555556,74.47916666666667,0)" xlink:href="#C"/><use transform="matrix(0.008680555555555556,0,0,0.008680555555555556,82.10069444444444,0)" xlink:href="#x"/><use transform="matrix(0.008680555555555556,0,0,0.008680555555555556,90.3732638888889,0)" xlink:href="#I"/><use transform="matrix(0.008680555555555556,0,0,0.008680555555555556,99.01909722222221,0)" xlink:href="#J"/><use transform="matrix(0.008680555555555556,0,0,0.008680555555555556,108.38541666666666,0)" xlink:href="#K"/></g><path fill="#fff" d="M113 0v-1040h174v176h4c43-141 154-221 312-189v169c-177-43-316 47-316 242V0H113" id="L"/><path fill="#fff" d="M468 20c-228 0-360-148-360-385v-675h174v644c0 169 79 262 239 262 164 0 271-117 271-294v-612h174V0H792v-148h-4C732-51 626 20 468 20" id="M"/><path fill="#fff" d="M110-740c12-181 161-318 410-320 246 0 400 133 400 341V0H746v-169h-4C681-55 556 20 417 20 209 20 70-105 71-296c0-177 138-288 377-302l298-17v-87c0-127-83-204-228-204-138 1-222 66-240 166H110zm139 444c-1 102 81 165 207 165 164 0 290-113 290-264v-85l-278 17c-139 8-219 70-219 167" id="N"/><g id="d"><use transform="matrix(0.008680555555555556,0,0,0.008680555555555556,0,0)" xlink:href="#x"/><use transform="matrix(0.008680555555555556,0,0,0.008680555555555556,8.272569444444445,0)" xlink:href="#y"/><use transform="matrix(0.008680555555555556,0,0,0.008680555555555556,20.989583333333336,0)" xlink:href="#z"/><use transform="matrix(0.008680555555555556,0,0,0.008680555555555556,24.65277777777778,0)" xlink:href="#A"/><use transform="matrix(0.008680555555555556,0,0,0.008680555555555556,30.052083333333336,0)" xlink:href="#B"/><use transform="matrix(0.008680555555555556,0,0,0.008680555555555556,35.407986111111114,0)" xlink:href="#C"/><use transform="matrix(0.008680555555555556,0,0,0.008680555555555556,43.02951388888889,0)" xlink:href="#D"/><use transform="matrix(0.008680555555555556,0,0,0.008680555555555556,57.309027777777786,0)" xlink:href="#z"/><use transform="matrix(0.008680555555555556,0,0,0.008680555555555556,60.97222222222222,0)" xlink:href="#E"/><use transform="matrix(0.008680555555555556,0,0,0.008680555555555556,70.81597222222223,0)" xlink:href="#z"/><use transform="matrix(0.008680555555555556,0,0,0.008680555555555556,74.47916666666667,0)" xlink:href="#C"/><use transform="matrix(0.008680555555555556,0,0,0.008680555555555556,82.10069444444444,0)" xlink:href="#K"/><use transform="matrix(0.008680555555555556,0,0,0.008680555555555556,91.00694444444444,0)" xlink:href="#F"/><use transform="matrix(0.008680555555555556,0,0,0.008680555555555556,100.44270833333333,0)" xlink:href="#J"/><use transform="matrix(0.008680555555555556,0,0,0.008680555555555556,109.80902777777777,0)" xlink:href="#B"/><use transform="matrix(0.008680555555555556,0,0,0.008680555555555556,115.16493055555554,0)" xlink:href="#L"/><use transform="matrix(0.008680555555555556,0,0,0.008680555555555556,120.20833333333333,0)" xlink:href="#F"/><use transform="matrix(0.008680555555555556,0,0,0.008680555555555556,129.64409722222223,0)" xlink:href="#G"/><use transform="matrix(0.008680555555555556,0,0,0.008680555555555556,133.27256944444446,0)" xlink:href="#x"/><use transform="matrix(0.008680555555555556,0,0,0.008680555555555556,141.5451388888889,0)" xlink:href="#M"/><use transform="matrix(0.008680555555555556,0,0,0.008680555555555556,150.91145833333337,0)" xlink:href="#L"/><use transform="matrix(0.008680555555555556,0,0,0.008680555555555556,156.3888888888889,0)" xlink:href="#A"/><use transform="matrix(0.008680555555555556,0,0,0.008680555555555556,161.26736111111111,0)" xlink:href="#N"/><use transform="matrix(0.008680555555555556,0,0,0.008680555555555556,170.19097222222223,0)" xlink:href="#K"/><use transform="matrix(0.008680555555555556,0,0,0.008680555555555556,179.09722222222223,0)" xlink:href="#H"/><use transform="matrix(0.008680555555555556,0,0,0.008680555555555556,188.203125,0)" xlink:href="#x"/></g><path fill="#282c33" d="M698-740c-12-106-89-175-221-175-126 0-204 61-204 154 0 71 47 120 162 148l165 40c210 51 286 134 286 283 0 182-172 310-404 310C233 19 85-107 67-300h174c19 111 96 175 242 175 141 0 225-59 225-154 0-75-39-117-157-146l-165-40C190-512 95-603 95-754c0-179 157-306 382-306 233 2 378 135 387 320H698" id="O"/><path fill="#282c33" d="M319 0L28-1040h173l208 846h4l235-846h168l236 846h4l208-846h172L1146 0H969L734-805h-4L496 0H319" id="P"/><path fill="#282c33" d="M211-1216c-60 0-109-49-109-109 0-61 49-109 109-109 61 0 109 48 109 109 0 60-48 109-109 109zM124 0v-1040h174V0H124" id="Q"/><path fill="#282c33" d="M169 0v-896H24v-144h145v-128c0-200 93-295 285-295 39 0 80 3 106 7v141c-127-19-226 14-219 148v127h214v144H343V0H169" id="R"/><path fill="#282c33" d="M451 20c-191 0-285-86-285-285v-631H14v-144h152v-281h180v281h198v144H346v630c-5 134 82 152 198 138V13c-22 3-59 7-93 7" id="S"/><path fill="#282c33" d="M119-504v-162h640v162H119" id="T"/><path fill="#282c33" d="M113 0v-1040h174v152h4c47-103 151-172 285-172 142 0 247 73 292 200h4c58-125 180-200 326-200 206 0 339 135 339 342V0h-174v-678c0-143-79-228-216-228-138 0-235 103-235 245V0H738v-697c0-126-84-209-213-209-138 0-238 109-238 254V0H113" id="U"/><path fill="#282c33" d="M504 20C238 20 62-192 62-521c0-328 178-539 439-539 147 0 268 74 333 194h4v-577h174V0H838v-176h-4C769-55 653 20 504 20zm34-154c176 0 301-153 301-387 0-232-126-385-301-385-184 0-298 148-298 386 0 239 114 386 298 386" id="V"/><path fill="#282c33" d="M979-338C953-135 782 19 544 20 249 20 62-190 62-522c0-328 191-538 480-538 262 1 415 173 435 358H807c-25-110-108-203-265-204-181 0-302 150-302 387 0 242 124 385 304 385 145 0 237-83 264-204h171" id="W"/><path fill="#282c33" d="M544 20C254 20 61-190 62-522c0-331 194-538 481-538 288 0 483 207 482 540 0 332-194 540-481 540zm1-154c184 0 303-143 302-388 0-244-120-384-304-384-182 0-304 142-303 386 0 245 121 386 305 386" id="X"/><path fill="#282c33" d="M113 0v-1040h174v176h4c43-141 154-221 312-189v169c-177-43-316 47-316 242V0H113" id="Y"/><path fill="#282c33" d="M974-298C943-118 772 19 541 20 242 20 62-189 62-517c0-322 184-543 468-543 304 1 476 237 457 587H238c4 214 122 339 307 339 136-1 230-68 258-164h171zM529-906c-151 0-269 103-288 297h569c-17-202-129-297-281-297" id="Z"/><g id="e"><use transform="matrix(0.008680555555555556,0,0,0.008680555555555556,0,0)" xlink:href="#O"/><use transform="matrix(0.008680555555555556,0,0,0.008680555555555556,8.272569444444445,0)" xlink:href="#P"/><use transform="matrix(0.008680555555555556,0,0,0.008680555555555556,20.989583333333336,0)" xlink:href="#Q"/><use transform="matrix(0.008680555555555556,0,0,0.008680555555555556,24.65277777777778,0)" xlink:href="#R"/><use transform="matrix(0.008680555555555556,0,0,0.008680555555555556,30.052083333333336,0)" xlink:href="#S"/><use transform="matrix(0.008680555555555556,0,0,0.008680555555555556,35.407986111111114,0)" xlink:href="#T"/><use transform="matrix(0.008680555555555556,0,0,0.008680555555555556,43.02951388888889,0)" xlink:href="#U"/><use transform="matrix(0.008680555555555556,0,0,0.008680555555555556,57.309027777777786,0)" xlink:href="#Q"/><use transform="matrix(0.008680555555555556,0,0,0.008680555555555556,60.97222222222222,0)" xlink:href="#V"/><use transform="matrix(0.008680555555555556,0,0,0.008680555555555556,70.81597222222223,0)" xlink:href="#Q"/><use transform="matrix(0.008680555555555556,0,0,0.008680555555555556,74.47916666666667,0)" xlink:href="#T"/><use transform="matrix(0.008680555555555556,0,0,0.008680555555555556,82.10069444444444,0)" xlink:href="#W"/><use transform="matrix(0.008680555555555556,0,0,0.008680555555555556,91.00694444444444,0)" xlink:href="#X"/><use transform="matrix(0.008680555555555556,0,0,0.008680555555555556,100.44270833333333,0)" xlink:href="#Y"/><use transform="matrix(0.008680555555555556,0,0,0.008680555555555556,105.48611111111111,0)" xlink:href="#Z"/></g><path fill="#282c33" d="M939-1053c-18-158-142-247-330-248-193 1-319 93-319 233 0 118 87 192 275 233l160 35c296 65 420 185 420 406 0 256-203 418-533 418C295 23 83-131 70-390h180c16 157 157 246 372 248 208 0 339-94 339-244 0-127-83-198-281-242l-160-35c-282-62-414-189-414-401 1-237 211-403 508-403 287 2 495 166 505 414H939" id="aa"/><path fill="#282c33" d="M566 65c-83 230-200 311-446 277V200c137 18 224-4 269-140l21-59L24-1040h186l287 866h4l288-866h183" id="ab"/><g id="f"><use transform="matrix(0.008680555555555556,0,0,0.008680555555555556,0,0)" xlink:href="#aa"/><use transform="matrix(0.008680555555555556,0,0,0.008680555555555556,10.546875,0)" xlink:href="#ab"/><use transform="matrix(0.008680555555555556,0,0,0.008680555555555556,19.192708333333336,0)" xlink:href="#O"/><use transform="matrix(0.008680555555555556,0,0,0.008680555555555556,27.46527777777778,0)" xlink:href="#S"/><use transform="matrix(0.008680555555555556,0,0,0.008680555555555556,32.560763888888886,0)" xlink:href="#Z"/><use transform="matrix(0.008680555555555556,0,0,0.008680555555555556,41.66666666666666,0)" xlink:href="#U"/></g><path fill="#282c33" d="M140 0v-1443h208L848-227h6l500-1216h208V0h-168v-1115h-6L927 0H775L314-1115h-6V0H140" id="ac"/><path fill="#282c33" d="M140 0v-1443h180V0H140" id="ad"/><path fill="#282c33" d="M140 0v-1443h485c428 0 682 267 681 721 0 455-252 722-681 722H140zm180-162h293c328 0 510-201 509-560 0-360-182-559-509-559H320v1119" id="ae"/><g id="g"><use transform="matrix(0.008680555555555556,0,0,0.008680555555555556,0,0)" xlink:href="#ac"/><use transform="matrix(0.008680555555555556,0,0,0.008680555555555556,14.774305555555555,0)" xlink:href="#ad"/><use transform="matrix(0.008680555555555556,0,0,0.008680555555555556,18.76736111111111,0)" xlink:href="#ae"/><use transform="matrix(0.008680555555555556,0,0,0.008680555555555556,30.833333333333336,0)" xlink:href="#ad"/></g><path fill="#282c33" d="M140 0v-1443h180v1281h696V0H140" id="af"/><path fill="#282c33" d="M110-740c12-181 161-318 410-320 246 0 400 133 400 341V0H746v-169h-4C681-55 556 20 417 20 209 20 70-105 71-296c0-177 138-288 377-302l298-17v-87c0-127-83-204-228-204-138 1-222 66-240 166H110zm139 444c-1 102 81 165 207 165 164 0 290-113 290-264v-85l-278 17c-139 8-219 70-219 167" id="ag"/><g id="h"><use transform="matrix(0.008680555555555556,0,0,0.008680555555555556,0,0)" xlink:href="#af"/><use transform="matrix(0.008680555555555556,0,0,0.008680555555555556,9.322916666666668,0)" xlink:href="#ag"/><use transform="matrix(0.008680555555555556,0,0,0.008680555555555556,18.24652777777778,0)" xlink:href="#ab"/><use transform="matrix(0.008680555555555556,0,0,0.008680555555555556,26.545138888888893,0)" xlink:href="#Z"/><use transform="matrix(0.008680555555555556,0,0,0.008680555555555556,35.65104166666667,0)" xlink:href="#Y"/></g><path fill="#282c33" d="M474 350C93-105 93-988 474-1443h146c-144 167-253 562-253 896s109 730 253 897H474" id="ah"/><path fill="#282c33" d="M220-760c-64 0-114-50-114-114s50-114 114-114 114 50 114 114-50 114-114 114zm0 774c-64 0-114-50-114-114s50-114 114-114 114 50 114 114S284 14 220 14" id="ai"/><g id="i"><use transform="matrix(0.008680555555555556,0,0,0.008680555555555556,0,0)" xlink:href="#ah"/><use transform="matrix(0.008680555555555556,0,0,0.008680555555555556,5.729166666666667,0)" xlink:href="#Q"/><use transform="matrix(0.008680555555555556,0,0,0.008680555555555556,9.39236111111111,0)" xlink:href="#Z"/><use transform="matrix(0.008680555555555556,0,0,0.008680555555555556,18.49826388888889,0)" xlink:href="#ai"/></g><path fill="#282c33" d="M1333-441c-52 282-284 465-590 465C342 24 84-268 84-723c0-454 257-744 659-744 304 0 538 185 590 465h-182c-51-187-196-300-408-299-288 0-474 227-474 579 0 351 187 580 474 580 205 1 347-105 408-299h182" id="aj"/><g id="j"><use transform="matrix(0.008680555555555556,0,0,0.008680555555555556,0,0)" xlink:href="#aj"/><use transform="matrix(0.008680555555555556,0,0,0.008680555555555556,12.196180555555555,0)" xlink:href="#X"/><use transform="matrix(0.008680555555555556,0,0,0.008680555555555556,21.631944444444443,0)" xlink:href="#Y"/><use transform="matrix(0.008680555555555556,0,0,0.008680555555555556,26.675347222222218,0)" xlink:href="#Z"/><use transform="matrix(0.008680555555555556,0,0,0.008680555555555556,35.78125,0)" xlink:href="#ac"/><use transform="matrix(0.008680555555555556,0,0,0.008680555555555556,50.55555555555556,0)" xlink:href="#ad"/><use transform="matrix(0.008680555555555556,0,0,0.008680555555555556,54.548611111111114,0)" xlink:href="#ae"/><use transform="matrix(0.008680555555555556,0,0,0.008680555555555556,66.61458333333334,0)" xlink:href="#ad"/></g><path fill="#282c33" d="M113 0v-1040h174v148h4c56-97 162-168 320-168 228 0 360 148 360 385V0H797v-644c0-169-79-262-239-262-164 0-271 117-271 294V0H113" id="ak"/><g id="k"><use transform="matrix(0.008680555555555556,0,0,0.008680555555555556,0,0)" xlink:href="#X"/><use transform="matrix(0.008680555555555556,0,0,0.008680555555555556,9.43576388888889,0)" xlink:href="#ak"/></g><path fill="#282c33" d="M25 0l537-1443h178L1276 0h-189L941-413H360L214 0H25zm624-1227L415-566h472l-234-661h-4" id="al"/><path fill="#282c33" d="M113 350v-1390h174v176h4c65-121 181-196 330-196 266 0 442 212 442 541 0 328-178 539-439 539-147 0-268-74-333-194h-4v524H113zm474-484c184 0 298-148 298-386 0-239-114-386-298-386-176 0-301 153-301 387 0 232 126 385 301 385" id="am"/><path fill="#282c33" d="M122 0v-1443h174V0H122" id="an"/><g id="l"><use transform="matrix(0.008680555555555556,0,0,0.008680555555555556,0,0)" xlink:href="#al"/><use transform="matrix(0.008680555555555556,0,0,0.008680555555555556,11.293402777777779,0)" xlink:href="#am"/><use transform="matrix(0.008680555555555556,0,0,0.008680555555555556,21.05902777777778,0)" xlink:href="#am"/><use transform="matrix(0.008680555555555556,0,0,0.008680555555555556,30.82465277777778,0)" xlink:href="#an"/><use transform="matrix(0.008680555555555556,0,0,0.008680555555555556,34.453125,0)" xlink:href="#Z"/></g><path fill="#282c33" d="M186 350H40c144-167 253-563 253-897s-109-729-253-896h146c381 455 380 1338 0 1793" id="ao"/><g id="m"><use transform="matrix(0.008680555555555556,0,0,0.008680555555555556,0,0)" xlink:href="#am"/><use transform="matrix(0.008680555555555556,0,0,0.008680555555555556,9.765625,0)" xlink:href="#an"/><use transform="matrix(0.008680555555555556,0,0,0.008680555555555556,13.394097222222221,0)" xlink:href="#ag"/><use transform="matrix(0.008680555555555556,0,0,0.008680555555555556,22.317708333333332,0)" xlink:href="#S"/><use transform="matrix(0.008680555555555556,0,0,0.008680555555555556,27.67361111111111,0)" xlink:href="#R"/><use transform="matrix(0.008680555555555556,0,0,0.008680555555555556,32.20486111111111,0)" xlink:href="#X"/><use transform="matrix(0.008680555555555556,0,0,0.008680555555555556,41.640625,0)" xlink:href="#Y"/><use transform="matrix(0.008680555555555556,0,0,0.008680555555555556,47.11805555555556,0)" xlink:href="#U"/><use transform="matrix(0.008680555555555556,0,0,0.008680555555555556,61.397569444444436,0)" xlink:href="#O"/><use transform="matrix(0.008680555555555556,0,0,0.008680555555555556,69.67013888888889,0)" xlink:href="#ao"/></g><path fill="#3a414a" d="M698-740c-12-106-89-175-221-175-126 0-204 61-204 154 0 71 47 120 162 148l165 40c210 51 286 134 286 283 0 182-172 310-404 310C233 19 85-107 67-300h174c19 111 96 175 242 175 141 0 225-59 225-154 0-75-39-117-157-146l-165-40C190-512 95-603 95-754c0-179 157-306 382-306 233 2 378 135 387 320H698" id="ap"/><path fill="#3a414a" d="M319 0L28-1040h173l208 846h4l235-846h168l236 846h4l208-846h172L1146 0H969L734-805h-4L496 0H319" id="aq"/><path fill="#3a414a" d="M211-1216c-60 0-109-49-109-109 0-61 49-109 109-109 61 0 109 48 109 109 0 60-48 109-109 109zM124 0v-1040h174V0H124" id="ar"/><path fill="#3a414a" d="M169 0v-896H24v-144h145v-128c0-200 93-295 285-295 39 0 80 3 106 7v141c-127-19-226 14-219 148v127h214v144H343V0H169" id="as"/><path fill="#3a414a" d="M451 20c-191 0-285-86-285-285v-631H14v-144h152v-281h180v281h198v144H346v630c-5 134 82 152 198 138V13c-22 3-59 7-93 7" id="at"/><path fill="#3a414a" d="M119-504v-162h640v162H119" id="au"/><path fill="#3a414a" d="M113 0v-1040h174v152h4c47-103 151-172 285-172 142 0 247 73 292 200h4c58-125 180-200 326-200 206 0 339 135 339 342V0h-174v-678c0-143-79-228-216-228-138 0-235 103-235 245V0H738v-697c0-126-84-209-213-209-138 0-238 109-238 254V0H113" id="av"/><path fill="#3a414a" d="M504 20C238 20 62-192 62-521c0-328 178-539 439-539 147 0 268 74 333 194h4v-577h174V0H838v-176h-4C769-55 653 20 504 20zm34-154c176 0 301-153 301-387 0-232-126-385-301-385-184 0-298 148-298 386 0 239 114 386 298 386" id="aw"/><g id="n"><use transform="matrix(0.009765625,0,0,0.009765625,0,0)" xlink:href="#ap"/><use transform="matrix(0.009765625,0,0,0.009765625,9.306640625,0)" xlink:href="#aq"/><use transform="matrix(0.009765625,0,0,0.009765625,23.61328125,0)" xlink:href="#ar"/><use transform="matrix(0.009765625,0,0,0.009765625,27.734375,0)" xlink:href="#as"/><use transform="matrix(0.009765625,0,0,0.009765625,33.80859375,0)" xlink:href="#at"/><use transform="matrix(0.009765625,0,0,0.009765625,39.833984375,0)" xlink:href="#au"/><use transform="matrix(0.009765625,0,0,0.009765625,48.408203125,0)" xlink:href="#av"/><use transform="matrix(0.009765625,0,0,0.009765625,64.47265625,0)" xlink:href="#ar"/><use transform="matrix(0.009765625,0,0,0.009765625,68.59375,0)" xlink:href="#aw"/><use transform="matrix(0.009765625,0,0,0.009765625,79.66796875,0)" xlink:href="#ar"/></g><path fill="#3a414a" d="M140 0v-1443h180v624h792v-624h180V0h-180v-657H320V0H140" id="ax"/><path fill="#3a414a" d="M714 24c-358 0-574-216-574-530v-937h180v925c0 222 144 376 394 376s392-154 392-376v-925h180v937c0 314-214 530-572 530" id="ay"/><path fill="#3a414a" d="M140 0v-1443h180V0H140" id="az"/><g id="o"><use transform="matrix(0.008680555555555556,0,0,0.008680555555555556,0,0)" xlink:href="#ax"/><use transform="matrix(0.008680555555555556,0,0,0.008680555555555556,12.430555555555555,0)" xlink:href="#ay"/><use transform="matrix(0.008680555555555556,0,0,0.008680555555555556,24.80902777777778,0)" xlink:href="#az"/></g><path fill="#3a414a" d="M939-1053c-18-158-142-247-330-248-193 1-319 93-319 233 0 118 87 192 275 233l160 35c296 65 420 185 420 406 0 256-203 418-533 418C295 23 83-131 70-390h180c16 157 157 246 372 248 208 0 339-94 339-244 0-127-83-198-281-242l-160-35c-282-62-414-189-414-401 1-237 211-403 508-403 287 2 495 166 505 414H939" id="aA"/><path fill="#3a414a" d="M110-740c12-181 161-318 410-320 246 0 400 133 400 341V0H746v-169h-4C681-55 556 20 417 20 209 20 70-105 71-296c0-177 138-288 377-302l298-17v-87c0-127-83-204-228-204-138 1-222 66-240 166H110zm139 444c-1 102 81 165 207 165 164 0 290-113 290-264v-85l-278 17c-139 8-219 70-219 167" id="aB"/><path fill="#3a414a" d="M113 0v-1040h174v148h4c56-97 162-168 320-168 228 0 360 148 360 385V0H797v-644c0-169-79-262-239-262-164 0-271 117-271 294V0H113" id="aC"/><path fill="#3a414a" d="M113 0v-1040h174v176h4c43-141 154-221 312-189v169c-177-43-316 47-316 242V0H113" id="aD"/><g id="p"><use transform="matrix(0.008680555555555556,0,0,0.008680555555555556,0,0)" xlink:href="#aA"/><use transform="matrix(0.008680555555555556,0,0,0.008680555555555556,10.546875,0)" xlink:href="#at"/><use transform="matrix(0.008680555555555556,0,0,0.008680555555555556,15.729166666666668,0)" xlink:href="#aB"/><use transform="matrix(0.008680555555555556,0,0,0.008680555555555556,24.65277777777778,0)" xlink:href="#aC"/><use transform="matrix(0.008680555555555556,0,0,0.008680555555555556,34.01909722222222,0)" xlink:href="#aw"/><use transform="matrix(0.008680555555555556,0,0,0.008680555555555556,43.86284722222222,0)" xlink:href="#aB"/><use transform="matrix(0.008680555555555556,0,0,0.008680555555555556,52.78645833333333,0)" xlink:href="#aD"/><use transform="matrix(0.008680555555555556,0,0,0.008680555555555556,57.82986111111111,0)" xlink:href="#aw"/></g><path fill="#3a414a" d="M140 0v-1443h208L848-227h6l500-1216h208V0h-168v-1115h-6L927 0H775L314-1115h-6V0H140" id="aE"/><path fill="#3a414a" d="M140 0v-1443h485c428 0 682 267 681 721 0 455-252 722-681 722H140zm180-162h293c328 0 510-201 509-560 0-360-182-559-509-559H320v1119" id="aF"/><g id="q"><use transform="matrix(0.008680555555555556,0,0,0.008680555555555556,0,0)" xlink:href="#aE"/><use transform="matrix(0.008680555555555556,0,0,0.008680555555555556,14.774305555555555,0)" xlink:href="#az"/><use transform="matrix(0.008680555555555556,0,0,0.008680555555555556,18.76736111111111,0)" xlink:href="#aF"/><use transform="matrix(0.008680555555555556,0,0,0.008680555555555556,30.833333333333336,0)" xlink:href="#az"/></g><path fill="#3a414a" d="M140 0v-1443h876v162H320v496h639v160H320V0H140" id="aG"/><path fill="#3a414a" d="M122 0v-1443h174V0H122" id="aH"/><path fill="#3a414a" d="M974-298C943-118 772 19 541 20 242 20 62-189 62-517c0-322 184-543 468-543 304 1 476 237 457 587H238c4 214 122 339 307 339 136-1 230-68 258-164h171zM529-906c-151 0-269 103-288 297h569c-17-202-129-297-281-297" id="aI"/><g id="r"><use transform="matrix(0.008680555555555556,0,0,0.008680555555555556,0,0)" xlink:href="#aG"/><use transform="matrix(0.008680555555555556,0,0,0.008680555555555556,9.383680555555555,0)" xlink:href="#ar"/><use transform="matrix(0.008680555555555556,0,0,0.008680555555555556,13.046875,0)" xlink:href="#aH"/><use transform="matrix(0.008680555555555556,0,0,0.008680555555555556,16.67534722222222,0)" xlink:href="#aI"/></g><path fill="#3a414a" d="M505 0v-1281H50v-162h1090v162H685V0H505" id="aJ"/><path fill="#3a414a" d="M1333-441c-52 282-284 465-590 465C342 24 84-268 84-723c0-454 257-744 659-744 304 0 538 185 590 465h-182c-51-187-196-300-408-299-288 0-474 227-474 579 0 351 187 580 474 580 205 1 347-105 408-299h182" id="aK"/><g id="s"><use transform="matrix(0.008680555555555556,0,0,0.008680555555555556,0,0)" xlink:href="#aE"/><use transform="matrix(0.008680555555555556,0,0,0.008680555555555556,14.774305555555555,0)" xlink:href="#aJ"/><use transform="matrix(0.008680555555555556,0,0,0.008680555555555556,24.322916666666664,0)" xlink:href="#aK"/></g><path fill="#3a414a" d="M140 0v-1443h894v162H320v463h677v160H320v496h714V0H140" id="aL"/><path fill="#3a414a" d="M406 0L23-1040h183l287 855h4l288-855h181L584 0H406" id="aM"/><g id="t"><use transform="matrix(0.008680555555555556,0,0,0.008680555555555556,0,0)" xlink:href="#aL"/><use transform="matrix(0.008680555555555556,0,0,0.008680555555555556,9.817708333333334,0)" xlink:href="#aM"/><use transform="matrix(0.008680555555555556,0,0,0.008680555555555556,18.055555555555557,0)" xlink:href="#aI"/><use transform="matrix(0.008680555555555556,0,0,0.008680555555555556,27.161458333333336,0)" xlink:href="#aC"/><use transform="matrix(0.008680555555555556,0,0,0.008680555555555556,36.52777777777778,0)" xlink:href="#at"/><use transform="matrix(0.008680555555555556,0,0,0.008680555555555556,41.88368055555556,0)" xlink:href="#ap"/></g><path fill="#3a414a" d="M573-1443L166 350H0l407-1793h166" id="aN"/><path fill="#3a414a" d="M750 24C339 24 83-264 84-723c0-457 257-744 666-744s665 288 664 746c0 458-255 745-664 745zm0-166c298 0 481-228 480-581 0-354-186-578-480-578-296 0-483 224-482 580 0 355 186 579 482 579" id="aO"/><g id="u"><use transform="matrix(0.008680555555555556,0,0,0.008680555555555556,0,0)" xlink:href="#az"/><use transform="matrix(0.008680555555555556,0,0,0.008680555555555556,3.993055555555556,0)" xlink:href="#aN"/><use transform="matrix(0.008680555555555556,0,0,0.008680555555555556,8.958333333333334,0)" xlink:href="#aO"/></g><g id="v"><use transform="matrix(0.008680555555555556,0,0,0.008680555555555556,0,0)" xlink:href="#x"/><use transform="matrix(0.008680555555555556,0,0,0.008680555555555556,8.272569444444445,0)" xlink:href="#y"/><use transform="matrix(0.008680555555555556,0,0,0.008680555555555556,20.989583333333336,0)" xlink:href="#z"/><use transform="matrix(0.008680555555555556,0,0,0.008680555555555556,24.65277777777778,0)" xlink:href="#A"/><use transform="matrix(0.008680555555555556,0,0,0.008680555555555556,30.052083333333336,0)" xlink:href="#B"/><use transform="matrix(0.008680555555555556,0,0,0.008680555555555556,35.407986111111114,0)" xlink:href="#C"/><use transform="matrix(0.008680555555555556,0,0,0.008680555555555556,43.02951388888889,0)" xlink:href="#D"/><use transform="matrix(0.008680555555555556,0,0,0.008680555555555556,57.309027777777786,0)" xlink:href="#z"/><use transform="matrix(0.008680555555555556,0,0,0.008680555555555556,60.97222222222222,0)" xlink:href="#E"/><use transform="matrix(0.008680555555555556,0,0,0.008680555555555556,70.81597222222223,0)" xlink:href="#z"/><use transform="matrix(0.008680555555555556,0,0,0.008680555555555556,74.47916666666667,0)" xlink:href="#C"/><use transform="matrix(0.008680555555555556,0,0,0.008680555555555556,82.10069444444444,0)" xlink:href="#M"/><use transform="matrix(0.008680555555555556,0,0,0.008680555555555556,91.4670138888889,0)" xlink:href="#z"/></g><g id="w"><use transform="matrix(0.008680555555555556,0,0,0.008680555555555556,0,0)" xlink:href="#ay"/><use transform="matrix(0.008680555555555556,0,0,0.008680555555555556,12.378472222222223,0)" xlink:href="#az"/></g></defs></g></svg>