<svg xmlns="http://www.w3.org/2000/svg" xmlns:xlink="http://www.w3.org/1999/xlink" xmlns:lucid="lucid" width="842" height="462"><g transform="translate(-19 41)" lucid:page-tab-id="0_0"><path d="M20 46a6 6 0 0 1 6-6h828a6 6 0 0 1 6 6v288a6 6 0 0 1-6 6H26a6 6 0 0 1-6-6z" stroke="#282c33" stroke-width="2" fill="#fff"/><path d="M120 183.77a6 6 0 0 1 6-6h551.96a6 6 0 0 1 6 6v49.36a6 6 0 0 1-6 6H126a6 6 0 0 1-6-6z" stroke="#3a414a" stroke-width="2" fill="#1071e5"/><use xlink:href="#a" transform="matrix(1,0,0,1,132,189.7699614533072) translate(229.7705078125 26.16796875)"/><path d="M700.13 103.6a6 6 0 0 1 6-6h115.52a6 6 0 0 1 6 6v49.63a6 6 0 0 1-6 6H706.13a6 6 0 0 1-6-6z" stroke="#3a414a" fill="#fff"/><use xlink:href="#b" transform="matrix(1,0,0,1,712.1340801471736,109.61079747825337) translate(1.8095703125 26.16796875)"/><path d="M187.65 103.6a6 6 0 0 1 6-6H314a6 6 0 0 1 6 6v49.37a6 6 0 0 1-6 6H193.65a6 6 0 0 1-6-6z" stroke="#3a414a" fill="#fff"/><use xlink:href="#c" transform="matrix(1,0,0,1,199.64705868026053,109.61079747825337) translate(2.7568359375 26.16796875)"/><path d="M336.18 103.6a6 6 0 0 1 6-6H554a6 6 0 0 1 6 6v49.63a6 6 0 0 1-6 6H342.18a6 6 0 0 1-6-6z" stroke="#3a414a" stroke-width="2" fill="#54c45e"/><use xlink:href="#d" transform="matrix(1,0,0,1,348.1764706598699,109.61079747825337) translate(1.865234375 26.16796875)"/><path d="M80 264.2a6 6 0 0 1 6-6h748a6 6 0 0 1 6 6v49.6a6 6 0 0 1-6 6H86a6 6 0 0 1-6-6z" stroke="#3a414a" stroke-width="2" fill="#fcce14"/><use xlink:href="#e" transform="matrix(1,0,0,1,92.00000000000003,270.1872010359268) translate(317.2041015625 26.16796875)"/><path d="M20 366a6 6 0 0 1 6-6h828a6 6 0 0 1 6 6v48a6 6 0 0 1-6 6H26a6 6 0 0 1-6-6z" stroke="#3a414a" stroke-width="2" fill="#fff"/><use xlink:href="#f" transform="matrix(1,0,0,1,32,372) translate(366.232421875 25.79296875)"/><use xlink:href="#g" transform="matrix(1,0,0,1,32,372) translate(410.587890625 25.79296875)"/><path d="M20-18a22 22 0 0 1 22-22h796a22 22 0 0 1 22 22v16a22 22 0 0 1-22 22H42A22 22 0 0 1 20-2z" stroke="#3a414a" stroke-width="2" fill="#fff"/><use xlink:href="#h" transform="matrix(1,0,0,1,32,-28) translate(312.541015625 25.79296875)"/><use xlink:href="#i" transform="matrix(1,0,0,1,32,-28) translate(410.880859375 25.79296875)"/><use xlink:href="#j" transform="matrix(1,0,0,1,32,-28) translate(431.759765625 25.79296875)"/><path d="M26 340a6 6 0 0 1-6-6V63.95a6 6 0 0 1 6-6h48a6 6 0 0 1 6 6V334a6 6 0 0 1-6 6z" stroke="#000" stroke-opacity="0" stroke-width="2" fill="#fff" fill-opacity="0"/><use xlink:href="#k" transform="matrix(6.123233995736766e-17,-1,1,6.123233995736766e-17,25.00000000000003,335) translate(105.8310546875 31.79296875)"/><path d="M449.1 86.13c0 .55-.46 1-1 1-.56 0-1-.45-1-1 0-.56.44-1 1-1 .54 0 1 .44 1 1zm0 4.74c0 .55-.46 1-1 1-.56 0-1-.45-1-1s.44-1 1-1c.54 0 1 .45 1 1z" fill="#3a414a"/><path d="M449.06 86.15h-1.95v-1.03h1.96zM449.06 96.6h-1.95V95.6h1.96z" stroke="#3a414a" stroke-width=".05" fill="#3a414a"/><path d="M418.1 52.42a6 6 0 0 1 6-6h48a6 6 0 0 1 6 6v26.7a6 6 0 0 1-6 6h-48a6 6 0 0 1-6-6z" stroke="#000" stroke-opacity="0" fill="#fff" fill-opacity="0"/><use xlink:href="#l" transform="matrix(1,0,0,1,423.088235329935,51.41705084642756) translate(8.798828125 20.85546875)"/><path d="M764.9 86.13c0 .55-.46 1-1 1-.56 0-1-.45-1-1 0-.56.44-1 1-1 .54 0 1 .44 1 1zm0 5c0 .54-.46 1-1 1-.56 0-1-.46-1-1 0-.56.44-1 1-1 .54 0 1 .44 1 1z" fill="#3a414a"/><path d="M764.87 86.15h-1.95v-1.03h1.95zM764.87 97.1h-1.95V96.1h1.95z" stroke="#3a414a" stroke-width=".05" fill="#3a414a"/><path d="M673.9 52.42a6 6 0 0 1 6-6h168a6 6 0 0 1 6 6v26.7a6 6 0 0 1-6 6h-168a6 6 0 0 1-6-6z" stroke="#000" stroke-opacity="0" fill="#fff" fill-opacity="0"/><use xlink:href="#m" transform="matrix(1,0,0,1,678.8905694137171,51.41705084642756) translate(8.740234375 20.85546875)"/><use xlink:href="#n" transform="matrix(1,0,0,1,678.8905694137171,51.41705084642756) translate(88.974609375 20.85546875)"/><use xlink:href="#o" transform="matrix(1,0,0,1,678.8905694137171,51.41705084642756) translate(132.255859375 20.85546875)"/><path d="M254.82 86.13c0 .55-.44 1-1 1-.55 0-1-.45-1-1 0-.56.45-1 1-1 .56 0 1 .44 1 1zm0 5c0 .54-.44 1-1 1-.55 0-1-.46-1-1 0-.56.45-1 1-1 .56 0 1 .44 1 1z" fill="#3a414a"/><path d="M254.8 86.15h-1.95v-1.03h1.95zM254.8 97.1h-1.95V96.1h1.95z" stroke="#3a414a" stroke-width=".05" fill="#3a414a"/><path d="M223.82 52.42a6 6 0 0 1 6-6h48a6 6 0 0 1 6 6v26.7a6 6 0 0 1-6 6h-48a6 6 0 0 1-6-6z" stroke="#000" stroke-opacity="0" fill="#fff" fill-opacity="0"/><use xlink:href="#p" transform="matrix(1,0,0,1,228.82352934013028,51.41705084642756) translate(4.4580078125 20.85546875)"/><path d="M60 52.42a6 6 0 0 1 6-6h68a6 6 0 0 1 6 6v26.7a6 6 0 0 1-6 6H66a6 6 0 0 1-6-6z" stroke="#000" stroke-opacity="0" fill="#fff" fill-opacity="0"/><use xlink:href="#q" transform="matrix(1,0,0,1,65,51.41705084642756) translate(7.287109375 20.85546875)"/><path d="M101 86.13c0 .55-.45 1-1 1s-1-.45-1-1c0-.56.45-1 1-1s1 .44 1 1zm0 3.96c0 .55-.45 1-1 1s-1-.45-1-1c0-.56.45-1 1-1s1 .44 1 1zm0 3.96c0 .55-.45 1-1 1s-1-.45-1-1 .45-1 1-1 1 .45 1 1zm0 3.97c0 .55-.45 1-1 1s-1-.45-1-1c0-.56.45-1 1-1s1 .44 1 1zm0 3.96c0 .55-.45 1-1 1s-1-.45-1-1c0-.56.45-1 1-1s1 .44 1 1zm0 3.96c0 .55-.45 1-1 1s-1-.45-1-1 .45-1 1-1 1 .45 1 1zm0 3.97c0 .55-.45 1-1 1s-1-.45-1-1c0-.56.45-1 1-1s1 .44 1 1zm0 3.96c0 .55-.45 1-1 1s-1-.45-1-1c0-.56.45-1 1-1s1 .44 1 1zm0 3.96c0 .55-.45 1-1 1s-1-.45-1-1 .45-1 1-1 1 .45 1 1zm0 3.97c0 .55-.45 1-1 1s-1-.45-1-1 .45-1 1-1 1 .45 1 1zm0 3.97c0 .55-.45 1-1 1s-1-.45-1-1c0-.56.45-1 1-1s1 .44 1 1zm0 3.96c0 .55-.45 1-1 1s-1-.45-1-1 .45-1 1-1 1 .45 1 1zm0 3.97c0 .55-.45 1-1 1s-1-.45-1-1 .45-1 1-1 1 .45 1 1zm0 3.97c0 .55-.45 1-1 1s-1-.45-1-1c0-.56.45-1 1-1s1 .44 1 1zm0 3.96c0 .56-.45 1-1 1s-1-.44-1-1c0-.55.45-1 1-1s1 .45 1 1zm0 3.97c0 .55-.45 1-1 1s-1-.45-1-1 .45-1 1-1 1 .45 1 1zm0 3.97c0 .55-.45 1-1 1s-1-.45-1-1c0-.56.45-1 1-1s1 .44 1 1zm0 3.96c0 .56-.45 1-1 1s-1-.44-1-1c0-.55.45-1 1-1s1 .45 1 1zm0 3.97c0 .55-.45 1-1 1s-1-.45-1-1 .45-1 1-1 1 .45 1 1zm0 3.97c0 .55-.45 1-1 1s-1-.45-1-1c0-.56.45-1 1-1s1 .44 1 1zm0 3.97c0 .55-.45 1-1 1s-1-.45-1-1c0-.56.45-1 1-1s1 .44 1 1zm0 3.96c0 .55-.45 1-1 1s-1-.45-1-1 .45-1 1-1 1 .45 1 1zm0 3.97c0 .55-.45 1-1 1s-1-.45-1-1 .45-1 1-1 1 .45 1 1zm0 3.97c0 .55-.45 1-1 1s-1-.45-1-1c0-.56.45-1 1-1s1 .44 1 1zm0 3.96c0 .55-.45 1-1 1s-1-.45-1-1 .45-1 1-1 1 .45 1 1zm0 3.97c0 .55-.45 1-1 1s-1-.45-1-1 .45-1 1-1 1 .45 1 1zm0 3.97c0 .55-.45 1-1 1s-1-.45-1-1c0-.56.45-1 1-1s1 .44 1 1zm0 3.96c0 .56-.45 1-1 1s-1-.44-1-1c0-.55.45-1 1-1s1 .45 1 1zm0 3.97c0 .55-.45 1-1 1s-1-.45-1-1 .45-1 1-1 1 .45 1 1zm0 3.97c0 .55-.45 1-1 1s-1-.45-1-1 .45-1 1-1 1 .45 1 1zm0 3.96c0 .56-.45 1-1 1s-1-.44-1-1c0-.55.45-1 1-1s1 .45 1 1zm0 3.97c0 .55-.45 1-1 1s-1-.45-1-1 .45-1 1-1 1 .45 1 1zm0 3.97c0 .55-.45 1-1 1s-1-.45-1-1 .45-1 1-1 1 .45 1 1zm0 3.97c0 .55-.45 1-1 1s-1-.45-1-1c0-.56.45-1 1-1s1 .44 1 1zm.3 4.18c0 .56-.44 1-1 1-.55 0-1-.44-1-1 0-.55.45-1 1-1 .56 0 1 .45 1 1zm0 3.9c0 .54-.44 1-1 1-.55 0-1-.46-1-1 0-.56.45-1 1-1 .56 0 1 .44 1 1zm0 3.87c0 .55-.44 1-1 1-.55 0-1-.45-1-1 0-.56.45-1 1-1 .56 0 1 .44 1 1zm0 3.88c0 .55-.44 1-1 1-.55 0-1-.45-1-1s.45-1 1-1c.56 0 1 .45 1 1zm0 3.88c0 .56-.44 1-1 1-.55 0-1-.44-1-1 0-.55.45-1 1-1 .56 0 1 .45 1 1zm0 3.9c0 .54-.44 1-1 1-.55 0-1-.46-1-1 0-.56.45-1 1-1 .56 0 1 .44 1 1zm0 3.87c0 .56-.44 1-1 1-.55 0-1-.44-1-1 0-.55.45-1 1-1 .56 0 1 .45 1 1zm0 3.9c0 .54-.44 1-1 1-.55 0-1-.46-1-1 0-.56.45-1 1-1 .56 0 1 .44 1 1zm0 3.87c0 .55-.44 1-1 1-.55 0-1-.45-1-1s.45-1 1-1c.56 0 1 .45 1 1zm0 3.9c0 .54-.44 1-1 1-.55 0-1-.46-1-1 0-.56.45-1 1-1 .56 0 1 .44 1 1z" fill="#3a414a"/><path d="M100.97 86.15h-1.94v-1.03h1.94zM101.28 257.2h-1.95v-1.04h1.95z" stroke="#3a414a" stroke-width=".05" fill="#3a414a"/><path d="M140 52.42a6 6 0 0 1 6-6h48a6 6 0 0 1 6 6v26.7a6 6 0 0 1-6 6h-48a6 6 0 0 1-6-6z" stroke="#000" stroke-opacity="0" fill="#fff" fill-opacity="0"/><use xlink:href="#r" transform="matrix(1,0,0,1,145.00000000000063,51.41705084642756) translate(12.646484375 20.85546875)"/><path d="M171 86.13c0 .55-.45 1-1 1s-1-.45-1-1c0-.56.45-1 1-1s1 .44 1 1zm0 3.93c0 .55-.45 1-1 1s-1-.45-1-1 .45-1 1-1 1 .45 1 1zm0 3.94c0 .55-.45 1-1 1s-1-.45-1-1 .45-1 1-1 1 .45 1 1zm-1.76 4.24c0 .56-.45 1-1 1s-1-.44-1-1c0-.55.45-1 1-1s1 .45 1 1zM165 100c0 .55-.45 1-1 1s-1-.45-1-1 .45-1 1-1 1 .45 1 1zm-4.65 0c0 .55-.45 1-1 1s-1-.45-1-1 .45-1 1-1 1 .45 1 1zm-4.24 1.76c0 .55-.44 1-1 1-.54 0-1-.45-1-1 0-.56.46-1 1-1 .56 0 1 .44 1 1zm-1.75 4.24c0 .55-.45 1-1 1s-1-.45-1-1 .45-1 1-1 1 .45 1 1zm0 4.1c0 .56-.45 1-1 1s-1-.44-1-1c0-.55.45-1 1-1s1 .45 1 1zm0 4.1c0 .56-.45 1-1 1s-1-.44-1-1c0-.54.45-1 1-1s1 .46 1 1zm0 4.1c0 .56-.45 1-1 1s-1-.44-1-1c0-.54.45-1 1-1s1 .46 1 1zm0 4.12c0 .55-.45 1-1 1s-1-.45-1-1c0-.56.45-1 1-1s1 .44 1 1zm0 4.1c0 .55-.45 1-1 1s-1-.45-1-1 .45-1 1-1 1 .45 1 1zm0 4.1c0 .56-.45 1-1 1s-1-.44-1-1c0-.55.45-1 1-1s1 .45 1 1zm0 4.1c0 .56-.45 1-1 1s-1-.44-1-1c0-.54.45-1 1-1s1 .46 1 1zm0 4.1c0 .56-.45 1-1 1s-1-.44-1-1c0-.54.45-1 1-1s1 .46 1 1zm0 4.12c0 .55-.45 1-1 1s-1-.45-1-1c0-.56.45-1 1-1s1 .44 1 1zm0 4.1c0 .55-.45 1-1 1s-1-.45-1-1 .45-1 1-1 1 .45 1 1zm0 4.1c0 .56-.45 1-1 1s-1-.44-1-1c0-.55.45-1 1-1s1 .45 1 1zm0 4.1c0 .56-.45 1-1 1s-1-.44-1-1c0-.54.45-1 1-1s1 .46 1 1zm0 4.1c0 .57-.45 1-1 1s-1-.43-1-1c0-.54.45-1 1-1s1 .46 1 1zm0 4.12c0 .55-.45 1-1 1s-1-.45-1-1c0-.56.45-1 1-1s1 .44 1 1zm0 4.1c0 .55-.45 1-1 1s-1-.45-1-1 .45-1 1-1 1 .45 1 1zm0 4.1c0 .56-.45 1-1 1s-1-.44-1-1c0-.55.45-1 1-1s1 .45 1 1zm0 4.1c0 .56-.45 1-1 1s-1-.44-1-1c0-.54.45-1 1-1s1 .46 1 1z" fill="#3a414a"/><path d="M170.97 86.15h-1.94v-1.03h1.94zM154.33 176.77h-1.95v-1.03h1.95z" stroke="#3a414a" stroke-width=".05" fill="#3a414a"/><path d="M449.1 161.23c0 .55-.46 1-1 1-.56 0-1-.45-1-1 0-.56.44-1 1-1 .54 0 1 .44 1 1zm0 3.62c0 .55-.46 1-1 1-.56 0-1-.45-1-1s.44-1 1-1c.54 0 1 .45 1 1zm0 3.62c0 .55-.46 1-1 1-.56 0-1-.45-1-1s.44-1 1-1c.54 0 1 .45 1 1zm.04 3.68c0 .55-.45 1-1 1s-1-.45-1-1c0-.56.45-1 1-1s1 .44 1 1zm0 3.62c0 .55-.45 1-1 1s-1-.45-1-1 .45-1 1-1 1 .45 1 1z" fill="#3a414a"/><path d="M449.06 161.25h-1.95v-1.02h1.96zM449.1 176.77h-1.94v-1.03h1.95z" stroke="#3a414a" stroke-width=".05" fill="#3a414a"/><path d="M402.67 241.13c0 .55-.45 1-1 1s-1-.45-1-1c0-.56.45-1 1-1s1 .44 1 1zm0 3.75c0 .55-.45 1-1 1s-1-.45-1-1c0-.56.45-1 1-1s1 .44 1 1zm0 3.75c0 .55-.45 1-1 1s-1-.45-1-1 .45-1 1-1 1 .45 1 1zm-.06 3.8c0 .56-.44 1-1 1-.54 0-1-.44-1-1 0-.55.46-1 1-1 .56 0 1 .45 1 1zm0 3.76c0 .54-.44 1-1 1-.54 0-1-.46-1-1 0-.56.46-1 1-1 .56 0 1 .44 1 1z" fill="#3a414a"/><path d="M402.64 241.15h-1.95v-1.02h1.94zM402.6 257.2h-1.96v-1.04h1.95z" stroke="#3a414a" stroke-width=".05" fill="#3a414a"/><path d="M764.9 160.73c0 .55-.46 1-1 1-.56 0-1-.45-1-1 0-.56.44-1 1-1 .54 0 1 .44 1 1zm0 3.96c0 .54-.46 1-1 1-.56 0-1-.46-1-1 0-.56.44-1 1-1 .54 0 1 .44 1 1zm0 3.96c0 .55-.46 1-1 1-.56 0-1-.45-1-1 0-.56.44-1 1-1 .54 0 1 .44 1 1zm0 3.96c0 .55-.46 1-1 1-.56 0-1-.45-1-1s.44-1 1-1c.54 0 1 .45 1 1zm0 3.97c0 .54-.46 1-1 1-.56 0-1-.46-1-1 0-.57.44-1 1-1 .54 0 1 .43 1 1zm0 3.95c0 .55-.46 1-1 1-.56 0-1-.45-1-1s.44-1 1-1c.54 0 1 .45 1 1zm0 3.97c0 .55-.46 1-1 1-.56 0-1-.45-1-1 0-.56.44-1 1-1 .54 0 1 .44 1 1zm0 3.96c0 .55-.46 1-1 1-.56 0-1-.45-1-1s.44-1 1-1c.54 0 1 .45 1 1zm0 3.97c0 .55-.46 1-1 1-.56 0-1-.45-1-1 0-.56.44-1 1-1 .54 0 1 .44 1 1zm0 3.96c0 .56-.46 1-1 1-.56 0-1-.44-1-1 0-.54.44-1 1-1 .54 0 1 .46 1 1zm0 3.97c0 .56-.46 1-1 1-.56 0-1-.44-1-1 0-.55.44-1 1-1 .54 0 1 .45 1 1zm0 3.97c0 .55-.46 1-1 1-.56 0-1-.45-1-1s.44-1 1-1c.54 0 1 .45 1 1zm0 3.97c0 .56-.46 1-1 1-.56 0-1-.44-1-1 0-.55.44-1 1-1 .54 0 1 .45 1 1zm.3 4.27c0 .56-.46 1-1 1-.56 0-1-.44-1-1 0-.55.44-1 1-1 .54 0 1 .45 1 1zm0 3.97c0 .55-.46 1-1 1-.56 0-1-.45-1-1s.44-1 1-1c.54 0 1 .45 1 1zm0 3.96c0 .56-.46 1-1 1-.56 0-1-.44-1-1 0-.55.44-1 1-1 .54 0 1 .45 1 1zm0 3.97c0 .55-.46 1-1 1-.56 0-1-.45-1-1 0-.56.44-1 1-1 .54 0 1 .44 1 1zm0 3.96c0 .56-.46 1-1 1-.56 0-1-.44-1-1 0-.55.44-1 1-1 .54 0 1 .45 1 1zm0 3.97c0 .55-.46 1-1 1-.56 0-1-.45-1-1 0-.56.44-1 1-1 .54 0 1 .44 1 1zm0 3.96c0 .55-.46 1-1 1-.56 0-1-.45-1-1s.44-1 1-1c.54 0 1 .45 1 1zm0 3.97c0 .55-.46 1-1 1-.56 0-1-.45-1-1 0-.56.44-1 1-1 .54 0 1 .44 1 1zm0 3.96c0 .54-.46 1-1 1-.56 0-1-.46-1-1 0-.56.44-1 1-1 .54 0 1 .44 1 1zm0 3.96c0 .55-.46 1-1 1-.56 0-1-.45-1-1s.44-1 1-1c.54 0 1 .45 1 1zm0 3.96c0 .56-.46 1-1 1-.56 0-1-.44-1-1 0-.55.44-1 1-1 .54 0 1 .45 1 1zm0 3.97c0 .54-.46 1-1 1-.56 0-1-.46-1-1 0-.56.44-1 1-1 .54 0 1 .44 1 1z" fill="#3a414a"/><path d="M764.87 160.75h-1.95v-1.02h1.95zM765.17 257.2h-1.95v-1.04h1.95z" stroke="#3a414a" stroke-width=".05" fill="#3a414a"/><path d="M254.82 160.47c0 .55-.44 1-1 1-.55 0-1-.45-1-1 0-.56.45-1 1-1 .56 0 1 .44 1 1zm0 3.78c0 .55-.44 1-1 1-.55 0-1-.45-1-1s.45-1 1-1c.56 0 1 .45 1 1zm0 3.78c0 .56-.44 1-1 1-.55 0-1-.44-1-1 0-.55.45-1 1-1 .56 0 1 .45 1 1zm-.16 3.96c0 .54-.45 1-1 1-.56 0-1-.46-1-1 0-.57.44-1 1-1 .55 0 1 .43 1 1zm0 3.77c0 .55-.45 1-1 1-.56 0-1-.45-1-1s.44-1 1-1c.55 0 1 .45 1 1z" fill="#3a414a"/><path d="M254.8 160.5h-1.95v-1.03h1.95zM254.63 176.77h-1.95v-1.03h1.95z" stroke="#3a414a" stroke-width=".05" fill="#3a414a"/><path d="M576.18 103.6a6 6 0 0 1 6-6h95.78a6 6 0 0 1 6 6v49.63a6 6 0 0 1-6 6h-95.78a6 6 0 0 1-6-6z" stroke="#3a414a" fill="#fff"/><use xlink:href="#s" transform="matrix(1,0,0,1,588.1764706598699,109.61079747825337) translate(2.1220703125 26.16796875)"/><path d="M600.07 52.42a6 6 0 0 1 6-6h48a6 6 0 0 1 6 6v26.7a6 6 0 0 1-6 6h-48a6 6 0 0 1-6-6z" stroke="#000" stroke-opacity="0" fill="#fff" fill-opacity="0"/><use xlink:href="#t" transform="matrix(1,0,0,1,605.0670400735868,51.41705084642756) translate(15.791015625 20.85546875)"/><path d="M631.07 96.1c0 .56-.45 1-1 1-.56 0-1-.44-1-1 0-.54.44-1 1-1 .55 0 1 .46 1 1zm0-4.98c0 .55-.45 1-1 1-.56 0-1-.45-1-1s.44-1 1-1c.55 0 1 .45 1 1z" fill="#3a414a"/><path d="M631.04 97.1h-1.95V96.1h1.94zM631.04 86.15h-1.95v-1.03h1.94z" stroke="#3a414a" stroke-width=".05" fill="#3a414a"/><path d="M631.07 160.73c0 .55-.45 1-1 1-.56 0-1-.45-1-1 0-.56.44-1 1-1 .55 0 1 .44 1 1zm0 3.7c0 .54-.45 1-1 1-.56 0-1-.46-1-1 0-.56.44-1 1-1 .55 0 1 .44 1 1zm0 3.7c0 .54-.45 1-1 1-.56 0-1-.46-1-1 0-.56.44-1 1-1 .55 0 1 .44 1 1zm.25 3.94c0 .56-.44 1-1 1-.55 0-1-.44-1-1 0-.55.45-1 1-1 .56 0 1 .45 1 1zm0 3.7c0 .55-.44 1-1 1-.55 0-1-.45-1-1s.45-1 1-1c.56 0 1 .45 1 1z" fill="#3a414a"/><path d="M631.04 160.75h-1.95v-1.02h1.94zM631.3 176.77h-1.95v-1.03h1.95z" stroke="#3a414a" stroke-width=".05" fill="#3a414a"/><defs><path fill="#fff" d="M140 0v-1443h208L848-227h6l500-1216h208V0h-168v-1115h-6L927 0H775L314-1115h-6V0H140" id="u"/><path fill="#fff" d="M140 0v-1443h180V0H140" id="v"/><path fill="#fff" d="M140 0v-1443h485c428 0 682 267 681 721 0 455-252 722-681 722H140zm180-162h293c328 0 510-201 509-560 0-360-182-559-509-559H320v1119" id="w"/><path fill="#fff" d="M140 0v-1443h180v708h6l612-708h226L600-804 1217 0H987L474-674 320-505V0H140" id="x"/><path fill="#fff" d="M211-1216c-60 0-109-49-109-109 0-61 49-109 109-109 61 0 109 48 109 109 0 60-48 109-109 109zM124 0v-1040h174V0H124" id="y"/><path fill="#fff" d="M451 20c-191 0-285-86-285-285v-631H14v-144h152v-281h180v281h198v144H346v630c-5 134 82 152 198 138V13c-22 3-59 7-93 7" id="z"/><path fill="#fff" d="M750 24C339 24 83-264 84-723c0-457 257-744 666-744s665 288 664 746c0 458-255 745-664 745zm0-166c298 0 481-228 480-581 0-354-186-578-480-578-296 0-483 224-482 580 0 355 186 579 482 579" id="A"/><g id="a"><use transform="matrix(0.009765625,0,0,0.009765625,0,0)" xlink:href="#u"/><use transform="matrix(0.009765625,0,0,0.009765625,16.62109375,0)" xlink:href="#v"/><use transform="matrix(0.009765625,0,0,0.009765625,21.11328125,0)" xlink:href="#w"/><use transform="matrix(0.009765625,0,0,0.009765625,34.6875,0)" xlink:href="#v"/><use transform="matrix(0.009765625,0,0,0.009765625,39.1796875,0)" xlink:href="#x"/><use transform="matrix(0.009765625,0,0,0.009765625,51.19140625,0)" xlink:href="#y"/><use transform="matrix(0.009765625,0,0,0.009765625,55.3125,0)" xlink:href="#z"/><use transform="matrix(0.009765625,0,0,0.009765625,61.337890625,0)" xlink:href="#v"/><use transform="matrix(0.009765625,0,0,0.009765625,65.830078125,0)" xlink:href="#A"/></g><path fill="#3a414a" d="M140 0v-1443h208L848-227h6l500-1216h208V0h-168v-1115h-6L927 0H775L314-1115h-6V0H140" id="B"/><path fill="#3a414a" d="M140 0v-1443h180V0H140" id="C"/><path fill="#3a414a" d="M140 0v-1443h485c428 0 682 267 681 721 0 455-252 722-681 722H140zm180-162h293c328 0 510-201 509-560 0-360-182-559-509-559H320v1119" id="D"/><path fill="#3a414a" d="M140 0v-1443h180v708h6l612-708h226L600-804 1217 0H987L474-674 320-505V0H140" id="E"/><path fill="#3a414a" d="M211-1216c-60 0-109-49-109-109 0-61 49-109 109-109 61 0 109 48 109 109 0 60-48 109-109 109zM124 0v-1040h174V0H124" id="F"/><path fill="#3a414a" d="M451 20c-191 0-285-86-285-285v-631H14v-144h152v-281h180v281h198v144H346v630c-5 134 82 152 198 138V13c-22 3-59 7-93 7" id="G"/><path fill="#3a414a" d="M939-1053c-18-158-142-247-330-248-193 1-319 93-319 233 0 118 87 192 275 233l160 35c296 65 420 185 420 406 0 256-203 418-533 418C295 23 83-131 70-390h180c16 157 157 246 372 248 208 0 339-94 339-244 0-127-83-198-281-242l-160-35c-282-62-414-189-414-401 1-237 211-403 508-403 287 2 495 166 505 414H939" id="H"/><path fill="#3a414a" d="M140 0v-1443h876v162H320v496h639v160H320V0H140" id="I"/><g id="b"><use transform="matrix(0.009765625,0,0,0.009765625,0,0)" xlink:href="#B"/><use transform="matrix(0.009765625,0,0,0.009765625,16.62109375,0)" xlink:href="#C"/><use transform="matrix(0.009765625,0,0,0.009765625,21.11328125,0)" xlink:href="#D"/><use transform="matrix(0.009765625,0,0,0.009765625,34.6875,0)" xlink:href="#C"/><use transform="matrix(0.009765625,0,0,0.009765625,39.1796875,0)" xlink:href="#E"/><use transform="matrix(0.009765625,0,0,0.009765625,51.19140625,0)" xlink:href="#F"/><use transform="matrix(0.009765625,0,0,0.009765625,55.3125,0)" xlink:href="#G"/><use transform="matrix(0.009765625,0,0,0.009765625,61.337890625,0)" xlink:href="#H"/><use transform="matrix(0.009765625,0,0,0.009765625,73.203125,0)" xlink:href="#B"/><use transform="matrix(0.009765625,0,0,0.009765625,89.82421875,0)" xlink:href="#I"/></g><path fill="#3a414a" d="M566 65c-83 230-200 311-446 277V200c137 18 224-4 269-140l21-59L24-1040h186l287 866h4l288-866h183" id="J"/><path fill="#3a414a" d="M113 0v-1040h174v148h4c56-97 162-168 320-168 228 0 360 148 360 385V0H797v-644c0-169-79-262-239-262-164 0-271 117-271 294V0H113" id="K"/><path fill="#3a414a" d="M979-338C953-135 782 19 544 20 249 20 62-190 62-522c0-328 191-538 480-538 262 1 415 173 435 358H807c-25-110-108-203-265-204-181 0-302 150-302 387 0 242 124 385 304 385 145 0 237-83 264-204h171" id="L"/><g id="c"><use transform="matrix(0.009765625,0,0,0.009765625,0,0)" xlink:href="#B"/><use transform="matrix(0.009765625,0,0,0.009765625,16.62109375,0)" xlink:href="#C"/><use transform="matrix(0.009765625,0,0,0.009765625,21.11328125,0)" xlink:href="#D"/><use transform="matrix(0.009765625,0,0,0.009765625,34.6875,0)" xlink:href="#C"/><use transform="matrix(0.009765625,0,0,0.009765625,39.1796875,0)" xlink:href="#E"/><use transform="matrix(0.009765625,0,0,0.009765625,51.19140625,0)" xlink:href="#F"/><use transform="matrix(0.009765625,0,0,0.009765625,55.3125,0)" xlink:href="#G"/><use transform="matrix(0.009765625,0,0,0.009765625,61.337890625,0)" xlink:href="#H"/><use transform="matrix(0.009765625,0,0,0.009765625,73.203125,0)" xlink:href="#J"/><use transform="matrix(0.009765625,0,0,0.009765625,82.9296875,0)" xlink:href="#K"/><use transform="matrix(0.009765625,0,0,0.009765625,93.466796875,0)" xlink:href="#L"/></g><path fill="#fff" d="M1333-441c-52 282-284 465-590 465C342 24 84-268 84-723c0-454 257-744 659-744 304 0 538 185 590 465h-182c-51-187-196-300-408-299-288 0-474 227-474 579 0 351 187 580 474 580 205 1 347-105 408-299h182" id="M"/><path fill="#fff" d="M544 20C254 20 61-190 62-522c0-331 194-538 481-538 288 0 483 207 482 540 0 332-194 540-481 540zm1-154c184 0 303-143 302-388 0-244-120-384-304-384-182 0-304 142-303 386 0 245 121 386 305 386" id="N"/><path fill="#fff" d="M113 0v-1040h174v148h4c56-97 162-168 320-168 228 0 360 148 360 385V0H797v-644c0-169-79-262-239-262-164 0-271 117-271 294V0H113" id="O"/><path fill="#fff" d="M113 0v-1040h174v176h4c43-141 154-221 312-189v169c-177-43-316 47-316 242V0H113" id="P"/><path fill="#fff" d="M122 0v-1443h174V0H122" id="Q"/><path fill="#fff" d="M939-1053c-18-158-142-247-330-248-193 1-319 93-319 233 0 118 87 192 275 233l160 35c296 65 420 185 420 406 0 256-203 418-533 418C295 23 83-131 70-390h180c16 157 157 246 372 248 208 0 339-94 339-244 0-127-83-198-281-242l-160-35c-282-62-414-189-414-401 1-237 211-403 508-403 287 2 495 166 505 414H939" id="R"/><path fill="#fff" d="M468 20c-228 0-360-148-360-385v-675h174v644c0 169 79 262 239 262 164 0 271-117 271-294v-612h174V0H792v-148h-4C732-51 626 20 468 20" id="S"/><path fill="#fff" d="M169 0v-896H24v-144h145v-128c0-200 93-295 285-295 39 0 80 3 106 7v141c-127-19-226 14-219 148v127h214v144H343V0H169" id="T"/><path fill="#fff" d="M110-740c12-181 161-318 410-320 246 0 400 133 400 341V0H746v-169h-4C681-55 556 20 417 20 209 20 70-105 71-296c0-177 138-288 377-302l298-17v-87c0-127-83-204-228-204-138 1-222 66-240 166H110zm139 444c-1 102 81 165 207 165 164 0 290-113 290-264v-85l-278 17c-139 8-219 70-219 167" id="U"/><path fill="#fff" d="M979-338C953-135 782 19 544 20 249 20 62-190 62-522c0-328 191-538 480-538 262 1 415 173 435 358H807c-25-110-108-203-265-204-181 0-302 150-302 387 0 242 124 385 304 385 145 0 237-83 264-204h171" id="V"/><path fill="#fff" d="M974-298C943-118 772 19 541 20 242 20 62-189 62-517c0-322 184-543 468-543 304 1 476 237 457 587H238c4 214 122 339 307 339 136-1 230-68 258-164h171zM529-906c-151 0-269 103-288 297h569c-17-202-129-297-281-297" id="W"/><path fill="#fff" d="M698-740c-12-106-89-175-221-175-126 0-204 61-204 154 0 71 47 120 162 148l165 40c210 51 286 134 286 283 0 182-172 310-404 310C233 19 85-107 67-300h174c19 111 96 175 242 175 141 0 225-59 225-154 0-75-39-117-157-146l-165-40C190-512 95-603 95-754c0-179 157-306 382-306 233 2 378 135 387 320H698" id="X"/><g id="d"><use transform="matrix(0.009765625,0,0,0.009765625,0,0)" xlink:href="#u"/><use transform="matrix(0.009765625,0,0,0.009765625,16.62109375,0)" xlink:href="#v"/><use transform="matrix(0.009765625,0,0,0.009765625,21.11328125,0)" xlink:href="#w"/><use transform="matrix(0.009765625,0,0,0.009765625,34.6875,0)" xlink:href="#v"/><use transform="matrix(0.009765625,0,0,0.009765625,39.1796875,0)" xlink:href="#x"/><use transform="matrix(0.009765625,0,0,0.009765625,51.19140625,0)" xlink:href="#y"/><use transform="matrix(0.009765625,0,0,0.009765625,55.3125,0)" xlink:href="#z"/><use transform="matrix(0.009765625,0,0,0.009765625,61.337890625,0)" xlink:href="#M"/><use transform="matrix(0.009765625,0,0,0.009765625,75.05859375,0)" xlink:href="#N"/><use transform="matrix(0.009765625,0,0,0.009765625,85.673828125,0)" xlink:href="#O"/><use transform="matrix(0.009765625,0,0,0.009765625,96.2109375,0)" xlink:href="#z"/><use transform="matrix(0.009765625,0,0,0.009765625,102.236328125,0)" xlink:href="#P"/><use transform="matrix(0.009765625,0,0,0.009765625,107.91015625,0)" xlink:href="#N"/><use transform="matrix(0.009765625,0,0,0.009765625,118.525390625,0)" xlink:href="#Q"/><use transform="matrix(0.009765625,0,0,0.009765625,122.607421875,0)" xlink:href="#R"/><use transform="matrix(0.009765625,0,0,0.009765625,134.47265625,0)" xlink:href="#S"/><use transform="matrix(0.009765625,0,0,0.009765625,145.009765625,0)" xlink:href="#P"/><use transform="matrix(0.009765625,0,0,0.009765625,151.171875,0)" xlink:href="#T"/><use transform="matrix(0.009765625,0,0,0.009765625,156.66015625,0)" xlink:href="#U"/><use transform="matrix(0.009765625,0,0,0.009765625,166.69921875,0)" xlink:href="#V"/><use transform="matrix(0.009765625,0,0,0.009765625,176.71875,0)" xlink:href="#W"/><use transform="matrix(0.009765625,0,0,0.009765625,186.962890625,0)" xlink:href="#X"/></g><path fill="#282c33" d="M140 0v-1443h208L848-227h6l500-1216h208V0h-168v-1115h-6L927 0H775L314-1115h-6V0H140" id="Y"/><path fill="#282c33" d="M140 0v-1443h180V0H140" id="Z"/><path fill="#282c33" d="M140 0v-1443h485c428 0 682 267 681 721 0 455-252 722-681 722H140zm180-162h293c328 0 510-201 509-560 0-360-182-559-509-559H320v1119" id="aa"/><path fill="#282c33" d="M140 0v-1443h180v708h6l612-708h226L600-804 1217 0H987L474-674 320-505V0H140" id="ab"/><path fill="#282c33" d="M211-1216c-60 0-109-49-109-109 0-61 49-109 109-109 61 0 109 48 109 109 0 60-48 109-109 109zM124 0v-1040h174V0H124" id="ac"/><path fill="#282c33" d="M451 20c-191 0-285-86-285-285v-631H14v-144h152v-281h180v281h198v144H346v630c-5 134 82 152 198 138V13c-22 3-59 7-93 7" id="ad"/><path fill="#282c33" d="M1333-441c-52 282-284 465-590 465C342 24 84-268 84-723c0-454 257-744 659-744 304 0 538 185 590 465h-182c-51-187-196-300-408-299-288 0-474 227-474 579 0 351 187 580 474 580 205 1 347-105 408-299h182" id="ae"/><path fill="#282c33" d="M544 20C254 20 61-190 62-522c0-331 194-538 481-538 288 0 483 207 482 540 0 332-194 540-481 540zm1-154c184 0 303-143 302-388 0-244-120-384-304-384-182 0-304 142-303 386 0 245 121 386 305 386" id="af"/><path fill="#282c33" d="M113 0v-1040h174v176h4c43-141 154-221 312-189v169c-177-43-316 47-316 242V0H113" id="ag"/><path fill="#282c33" d="M974-298C943-118 772 19 541 20 242 20 62-189 62-517c0-322 184-543 468-543 304 1 476 237 457 587H238c4 214 122 339 307 339 136-1 230-68 258-164h171zM529-906c-151 0-269 103-288 297h569c-17-202-129-297-281-297" id="ah"/><g id="e"><use transform="matrix(0.009765625,0,0,0.009765625,0,0)" xlink:href="#Y"/><use transform="matrix(0.009765625,0,0,0.009765625,16.62109375,0)" xlink:href="#Z"/><use transform="matrix(0.009765625,0,0,0.009765625,21.11328125,0)" xlink:href="#aa"/><use transform="matrix(0.009765625,0,0,0.009765625,34.6875,0)" xlink:href="#Z"/><use transform="matrix(0.009765625,0,0,0.009765625,39.1796875,0)" xlink:href="#ab"/><use transform="matrix(0.009765625,0,0,0.009765625,51.19140625,0)" xlink:href="#ac"/><use transform="matrix(0.009765625,0,0,0.009765625,55.3125,0)" xlink:href="#ad"/><use transform="matrix(0.009765625,0,0,0.009765625,61.337890625,0)" xlink:href="#ae"/><use transform="matrix(0.009765625,0,0,0.009765625,75.05859375,0)" xlink:href="#af"/><use transform="matrix(0.009765625,0,0,0.009765625,85.673828125,0)" xlink:href="#ag"/><use transform="matrix(0.009765625,0,0,0.009765625,91.34765625,0)" xlink:href="#ah"/></g><g id="f"><use transform="matrix(0.009765625,0,0,0.009765625,0,0)" xlink:href="#ae"/><use transform="matrix(0.009765625,0,0,0.009765625,13.720703125,0)" xlink:href="#af"/><use transform="matrix(0.009765625,0,0,0.009765625,24.3359375,0)" xlink:href="#ag"/><use transform="matrix(0.009765625,0,0,0.009765625,30.009765625,0)" xlink:href="#ah"/></g><g id="g"><use transform="matrix(0.009765625,0,0,0.009765625,0,0)" xlink:href="#Y"/><use transform="matrix(0.009765625,0,0,0.009765625,16.62109375,0)" xlink:href="#Z"/><use transform="matrix(0.009765625,0,0,0.009765625,21.11328125,0)" xlink:href="#aa"/><use transform="matrix(0.009765625,0,0,0.009765625,34.6875,0)" xlink:href="#Z"/></g><path fill="#282c33" d="M25 0l537-1443h178L1276 0h-189L941-413H360L214 0H25zm624-1227L415-566h472l-234-661h-4" id="ai"/><path fill="#282c33" d="M113 350v-1390h174v176h4c65-121 181-196 330-196 266 0 442 212 442 541 0 328-178 539-439 539-147 0-268-74-333-194h-4v524H113zm474-484c184 0 298-148 298-386 0-239-114-386-298-386-176 0-301 153-301 387 0 232 126 385 301 385" id="aj"/><path fill="#282c33" d="M122 0v-1443h174V0H122" id="ak"/><path fill="#282c33" d="M979-338C953-135 782 19 544 20 249 20 62-190 62-522c0-328 191-538 480-538 262 1 415 173 435 358H807c-25-110-108-203-265-204-181 0-302 150-302 387 0 242 124 385 304 385 145 0 237-83 264-204h171" id="al"/><path fill="#282c33" d="M110-740c12-181 161-318 410-320 246 0 400 133 400 341V0H746v-169h-4C681-55 556 20 417 20 209 20 70-105 71-296c0-177 138-288 377-302l298-17v-87c0-127-83-204-228-204-138 1-222 66-240 166H110zm139 444c-1 102 81 165 207 165 164 0 290-113 290-264v-85l-278 17c-139 8-219 70-219 167" id="am"/><path fill="#282c33" d="M113 0v-1040h174v148h4c56-97 162-168 320-168 228 0 360 148 360 385V0H797v-644c0-169-79-262-239-262-164 0-271 117-271 294V0H113" id="an"/><g id="h"><use transform="matrix(0.009765625,0,0,0.009765625,0,0)" xlink:href="#ai"/><use transform="matrix(0.009765625,0,0,0.009765625,12.705078125,0)" xlink:href="#aj"/><use transform="matrix(0.009765625,0,0,0.009765625,23.69140625,0)" xlink:href="#aj"/><use transform="matrix(0.009765625,0,0,0.009765625,34.677734375,0)" xlink:href="#ak"/><use transform="matrix(0.009765625,0,0,0.009765625,38.759765625,0)" xlink:href="#ac"/><use transform="matrix(0.009765625,0,0,0.009765625,42.880859375,0)" xlink:href="#al"/><use transform="matrix(0.009765625,0,0,0.009765625,52.900390625,0)" xlink:href="#am"/><use transform="matrix(0.009765625,0,0,0.009765625,62.939453125,0)" xlink:href="#ad"/><use transform="matrix(0.009765625,0,0,0.009765625,68.96484375,0)" xlink:href="#ac"/><use transform="matrix(0.009765625,0,0,0.009765625,73.0859375,0)" xlink:href="#af"/><use transform="matrix(0.009765625,0,0,0.009765625,83.701171875,0)" xlink:href="#an"/></g><g id="i"><use transform="matrix(0.009765625,0,0,0.009765625,0,0)" xlink:href="#af"/><use transform="matrix(0.009765625,0,0,0.009765625,10.615234375,0)" xlink:href="#ag"/></g><path fill="#282c33" d="M140 0v-1443h514c272 0 464 188 463 463 0 274-192 465-463 465H320V0H140zm468-1283H320v608h288c207 0 326-113 325-305 0-190-119-303-325-303" id="ao"/><path fill="#282c33" d="M127 0v-1443h174v862h4l456-459h211L521-591 986 0H784L398-485l-97 93V0H127" id="ap"/><path fill="#282c33" d="M273 86c32 83 131 129 278 130 183 0 287-101 287-262v-133h-4C772-64 652 10 503 10 241 10 62-201 62-527c0-323 181-533 445-533 147 0 263 80 327 196h4v-176h174V-29c0 241-177 399-459 399-261-1-423-122-455-284h175zm268-230c177 0 297-151 297-383 0-229-121-379-297-379-185 0-301 148-301 380 0 236 116 382 301 382" id="aq"/><g id="j"><use transform="matrix(0.009765625,0,0,0.009765625,0,0)" xlink:href="#ao"/><use transform="matrix(0.009765625,0,0,0.009765625,10.673828125,0)" xlink:href="#am"/><use transform="matrix(0.009765625,0,0,0.009765625,20.712890625,0)" xlink:href="#al"/><use transform="matrix(0.009765625,0,0,0.009765625,30.732421875,0)" xlink:href="#ap"/><use transform="matrix(0.009765625,0,0,0.009765625,40.439453125,0)" xlink:href="#am"/><use transform="matrix(0.009765625,0,0,0.009765625,50.478515625,0)" xlink:href="#aq"/><use transform="matrix(0.009765625,0,0,0.009765625,61.455078125,0)" xlink:href="#ah"/></g><g id="k"><use transform="matrix(0.009765625,0,0,0.009765625,0,0)" xlink:href="#B"/><use transform="matrix(0.009765625,0,0,0.009765625,16.62109375,0)" xlink:href="#C"/><use transform="matrix(0.009765625,0,0,0.009765625,21.11328125,0)" xlink:href="#D"/><use transform="matrix(0.009765625,0,0,0.009765625,34.6875,0)" xlink:href="#C"/><use transform="matrix(0.009765625,0,0,0.009765625,39.1796875,0)" xlink:href="#E"/><use transform="matrix(0.009765625,0,0,0.009765625,51.19140625,0)" xlink:href="#F"/><use transform="matrix(0.009765625,0,0,0.009765625,55.3125,0)" xlink:href="#G"/></g><path fill="#3a414a" d="M140 0v-1443h180v624h792v-624h180V0h-180v-657H320V0H140" id="ar"/><path fill="#3a414a" d="M714 24c-358 0-574-216-574-530v-937h180v925c0 222 144 376 394 376s392-154 392-376v-925h180v937c0 314-214 530-572 530" id="as"/><g id="l"><use transform="matrix(0.009765625,0,0,0.009765625,0,0)" xlink:href="#ar"/><use transform="matrix(0.009765625,0,0,0.009765625,13.984375,0)" xlink:href="#as"/><use transform="matrix(0.009765625,0,0,0.009765625,27.91015625,0)" xlink:href="#C"/></g><path fill="#3a414a" d="M110-740c12-181 161-318 410-320 246 0 400 133 400 341V0H746v-169h-4C681-55 556 20 417 20 209 20 70-105 71-296c0-177 138-288 377-302l298-17v-87c0-127-83-204-228-204-138 1-222 66-240 166H110zm139 444c-1 102 81 165 207 165 164 0 290-113 290-264v-85l-278 17c-139 8-219 70-219 167" id="at"/><path fill="#3a414a" d="M504 20C238 20 62-192 62-521c0-328 178-539 439-539 147 0 268 74 333 194h4v-577h174V0H838v-176h-4C769-55 653 20 504 20zm34-154c176 0 301-153 301-387 0-232-126-385-301-385-184 0-298 148-298 386 0 239 114 386 298 386" id="au"/><path fill="#3a414a" d="M113 0v-1040h174v176h4c43-141 154-221 312-189v169c-177-43-316 47-316 242V0H113" id="av"/><g id="m"><use transform="matrix(0.009765625,0,0,0.009765625,0,0)" xlink:href="#H"/><use transform="matrix(0.009765625,0,0,0.009765625,11.865234375,0)" xlink:href="#G"/><use transform="matrix(0.009765625,0,0,0.009765625,17.6953125,0)" xlink:href="#at"/><use transform="matrix(0.009765625,0,0,0.009765625,27.734375,0)" xlink:href="#K"/><use transform="matrix(0.009765625,0,0,0.009765625,38.271484375,0)" xlink:href="#au"/><use transform="matrix(0.009765625,0,0,0.009765625,49.345703125,0)" xlink:href="#at"/><use transform="matrix(0.009765625,0,0,0.009765625,59.384765625,0)" xlink:href="#av"/><use transform="matrix(0.009765625,0,0,0.009765625,65.05859375,0)" xlink:href="#au"/></g><g id="n"><use transform="matrix(0.009765625,0,0,0.009765625,0,0)" xlink:href="#B"/><use transform="matrix(0.009765625,0,0,0.009765625,16.62109375,0)" xlink:href="#C"/><use transform="matrix(0.009765625,0,0,0.009765625,21.11328125,0)" xlink:href="#D"/><use transform="matrix(0.009765625,0,0,0.009765625,34.6875,0)" xlink:href="#C"/></g><path fill="#3a414a" d="M122 0v-1443h174V0H122" id="aw"/><path fill="#3a414a" d="M974-298C943-118 772 19 541 20 242 20 62-189 62-517c0-322 184-543 468-543 304 1 476 237 457 587H238c4 214 122 339 307 339 136-1 230-68 258-164h171zM529-906c-151 0-269 103-288 297h569c-17-202-129-297-281-297" id="ax"/><g id="o"><use transform="matrix(0.009765625,0,0,0.009765625,0,0)" xlink:href="#I"/><use transform="matrix(0.009765625,0,0,0.009765625,10.556640625,0)" xlink:href="#F"/><use transform="matrix(0.009765625,0,0,0.009765625,14.677734375,0)" xlink:href="#aw"/><use transform="matrix(0.009765625,0,0,0.009765625,18.759765625,0)" xlink:href="#ax"/></g><path fill="#3a414a" d="M505 0v-1281H50v-162h1090v162H685V0H505" id="ay"/><path fill="#3a414a" d="M1333-441c-52 282-284 465-590 465C342 24 84-268 84-723c0-454 257-744 659-744 304 0 538 185 590 465h-182c-51-187-196-300-408-299-288 0-474 227-474 579 0 351 187 580 474 580 205 1 347-105 408-299h182" id="az"/><g id="p"><use transform="matrix(0.009765625,0,0,0.009765625,0,0)" xlink:href="#B"/><use transform="matrix(0.009765625,0,0,0.009765625,16.62109375,0)" xlink:href="#ay"/><use transform="matrix(0.009765625,0,0,0.009765625,27.36328125,0)" xlink:href="#az"/></g><path fill="#3a414a" d="M140 0v-1443h894v162H320v463h677v160H320v496h714V0H140" id="aA"/><path fill="#3a414a" d="M406 0L23-1040h183l287 855h4l288-855h181L584 0H406" id="aB"/><path fill="#3a414a" d="M698-740c-12-106-89-175-221-175-126 0-204 61-204 154 0 71 47 120 162 148l165 40c210 51 286 134 286 283 0 182-172 310-404 310C233 19 85-107 67-300h174c19 111 96 175 242 175 141 0 225-59 225-154 0-75-39-117-157-146l-165-40C190-512 95-603 95-754c0-179 157-306 382-306 233 2 378 135 387 320H698" id="aC"/><g id="q"><use transform="matrix(0.009765625,0,0,0.009765625,0,0)" xlink:href="#aA"/><use transform="matrix(0.009765625,0,0,0.009765625,11.044921875,0)" xlink:href="#aB"/><use transform="matrix(0.009765625,0,0,0.009765625,20.3125,0)" xlink:href="#ax"/><use transform="matrix(0.009765625,0,0,0.009765625,30.556640625,0)" xlink:href="#K"/><use transform="matrix(0.009765625,0,0,0.009765625,41.09375,0)" xlink:href="#G"/><use transform="matrix(0.009765625,0,0,0.009765625,47.119140625,0)" xlink:href="#aC"/></g><path fill="#3a414a" d="M573-1443L166 350H0l407-1793h166" id="aD"/><path fill="#3a414a" d="M750 24C339 24 83-264 84-723c0-457 257-744 666-744s665 288 664 746c0 458-255 745-664 745zm0-166c298 0 481-228 480-581 0-354-186-578-480-578-296 0-483 224-482 580 0 355 186 579 482 579" id="aE"/><g id="r"><use transform="matrix(0.009765625,0,0,0.009765625,0,0)" xlink:href="#C"/><use transform="matrix(0.009765625,0,0,0.009765625,4.4921875,0)" xlink:href="#aD"/><use transform="matrix(0.009765625,0,0,0.009765625,10.078125,0)" xlink:href="#aE"/></g><g id="s"><use transform="matrix(0.009765625,0,0,0.009765625,0,0)" xlink:href="#B"/><use transform="matrix(0.009765625,0,0,0.009765625,16.62109375,0)" xlink:href="#C"/><use transform="matrix(0.009765625,0,0,0.009765625,21.11328125,0)" xlink:href="#D"/><use transform="matrix(0.009765625,0,0,0.009765625,34.6875,0)" xlink:href="#C"/><use transform="matrix(0.009765625,0,0,0.009765625,39.1796875,0)" xlink:href="#E"/><use transform="matrix(0.009765625,0,0,0.009765625,51.19140625,0)" xlink:href="#F"/><use transform="matrix(0.009765625,0,0,0.009765625,55.3125,0)" xlink:href="#G"/><use transform="matrix(0.009765625,0,0,0.009765625,61.337890625,0)" xlink:href="#as"/><use transform="matrix(0.009765625,0,0,0.009765625,75.263671875,0)" xlink:href="#C"/></g><g id="t"><use transform="matrix(0.009765625,0,0,0.009765625,0,0)" xlink:href="#as"/><use transform="matrix(0.009765625,0,0,0.009765625,13.92578125,0)" xlink:href="#C"/></g></defs></g></svg>